<mxfile host="app.diagrams.net" modified="2022-03-31T13:56:13.954Z" agent="5.0 (Macintosh; Intel Mac OS X 10_15_7) AppleWebKit/605.1.15 (KHTML, like Gecko) Version/15.4 Safari/605.1.15" etag="TdGH_2Ylpb-zJSLRHKaI" version="17.3.0" type="github">
  <diagram id="KD0B1Izzq_PR3JP6kHFT" name="Page-1">
    <mxGraphModel dx="3129" dy="1171" grid="1" gridSize="10" guides="1" tooltips="1" connect="1" arrows="1" fold="1" page="1" pageScale="1" pageWidth="1100" pageHeight="850" math="0" shadow="0">
      <root>
        <mxCell id="0" />
        <mxCell id="1" parent="0" />
        <mxCell id="CB2yKECdqtkoGCdVRb_m-5" value="eu-central-1" style="points=[[0,0],[0.25,0],[0.5,0],[0.75,0],[1,0],[1,0.25],[1,0.5],[1,0.75],[1,1],[0.75,1],[0.5,1],[0.25,1],[0,1],[0,0.75],[0,0.5],[0,0.25]];outlineConnect=0;gradientColor=none;html=1;whiteSpace=wrap;fontSize=12;fontStyle=0;container=1;pointerEvents=0;collapsible=0;recursiveResize=0;shape=mxgraph.aws4.group;grIcon=mxgraph.aws4.group_aws_cloud_alt;strokeColor=#232F3E;fillColor=none;verticalAlign=top;align=left;spacingLeft=30;fontColor=#232F3E;dashed=0;" parent="1" vertex="1">
          <mxGeometry x="520" y="80" width="1210" height="1150" as="geometry" />
        </mxCell>
        <mxCell id="ZJDKhDsm4HpjwC9zdqOW-4" value="" style="group" parent="CB2yKECdqtkoGCdVRb_m-5" vertex="1" connectable="0">
          <mxGeometry x="130" y="35" width="1040" height="1080" as="geometry" />
        </mxCell>
        <mxCell id="ZJDKhDsm4HpjwC9zdqOW-9" value="" style="group" parent="ZJDKhDsm4HpjwC9zdqOW-4" vertex="1" connectable="0">
          <mxGeometry x="-10" width="1050" height="1080" as="geometry" />
        </mxCell>
        <mxCell id="CB2yKECdqtkoGCdVRb_m-1" value="&lt;font color=&quot;#869191&quot;&gt;VPC&lt;/font&gt;" style="points=[[0,0],[0.25,0],[0.5,0],[0.75,0],[1,0],[1,0.25],[1,0.5],[1,0.75],[1,1],[0.75,1],[0.5,1],[0.25,1],[0,1],[0,0.75],[0,0.5],[0,0.25]];outlineConnect=0;gradientColor=none;html=1;whiteSpace=wrap;fontSize=12;fontStyle=0;container=1;pointerEvents=0;collapsible=0;recursiveResize=0;shape=mxgraph.aws4.group;grIcon=mxgraph.aws4.group_vpc;strokeColor=#248814;fillColor=none;verticalAlign=top;align=left;spacingLeft=30;fontColor=#AAB7B8;dashed=0;shadow=0;" parent="ZJDKhDsm4HpjwC9zdqOW-9" vertex="1">
          <mxGeometry x="40" width="1010" height="1080" as="geometry" />
        </mxCell>
        <mxCell id="ZJDKhDsm4HpjwC9zdqOW-2" value="" style="group" parent="CB2yKECdqtkoGCdVRb_m-1" vertex="1" connectable="0">
          <mxGeometry x="26" y="30" width="960" height="1030" as="geometry" />
        </mxCell>
        <mxCell id="CB2yKECdqtkoGCdVRb_m-2" value="Public subnet" style="points=[[0,0],[0.25,0],[0.5,0],[0.75,0],[1,0],[1,0.25],[1,0.5],[1,0.75],[1,1],[0.75,1],[0.5,1],[0.25,1],[0,1],[0,0.75],[0,0.5],[0,0.25]];outlineConnect=0;gradientColor=none;html=1;whiteSpace=wrap;fontSize=12;fontStyle=0;container=1;pointerEvents=0;collapsible=0;recursiveResize=0;shape=mxgraph.aws4.group;grIcon=mxgraph.aws4.group_security_group;grStroke=0;strokeColor=#248814;fillColor=#E9F3E6;verticalAlign=top;align=left;spacingLeft=30;fontColor=#248814;dashed=0;shadow=0;sketch=0;" parent="ZJDKhDsm4HpjwC9zdqOW-2" vertex="1">
          <mxGeometry width="204.38709677419357" height="1030" as="geometry" />
        </mxCell>
        <mxCell id="CB2yKECdqtkoGCdVRb_m-61" value="ALB" style="sketch=0;outlineConnect=0;fontColor=#232F3E;gradientColor=none;fillColor=#734FFF;strokeColor=none;dashed=0;verticalLabelPosition=bottom;verticalAlign=top;align=center;html=1;fontSize=12;fontStyle=0;aspect=fixed;pointerEvents=1;shape=mxgraph.aws4.application_load_balancer;rounded=0;shadow=0;glass=1;labelBackgroundColor=none;" parent="CB2yKECdqtkoGCdVRb_m-2" vertex="1">
          <mxGeometry x="61.93548387096775" y="289.5123999999999" width="78.739793814433" height="78.739793814433" as="geometry" />
        </mxCell>
        <mxCell id="CB2yKECdqtkoGCdVRb_m-66" value="" style="shape=waypoint;sketch=0;size=6;pointerEvents=1;points=[];fillColor=#4D27AA;resizable=0;rotatable=0;perimeter=centerPerimeter;snapToPoint=1;verticalAlign=top;strokeColor=none;fontColor=#232F3E;gradientColor=none;dashed=0;fontStyle=0;rounded=0;shadow=0;glass=1;labelBackgroundColor=none;" parent="CB2yKECdqtkoGCdVRb_m-2" vertex="1">
          <mxGeometry x="244.64516129032262" y="309.0823999999999" width="40" height="40" as="geometry" />
        </mxCell>
        <mxCell id="CB2yKECdqtkoGCdVRb_m-68" value="" style="shape=waypoint;sketch=0;size=6;pointerEvents=1;points=[];fillColor=#4D27AA;resizable=0;rotatable=0;perimeter=centerPerimeter;snapToPoint=1;verticalAlign=top;strokeColor=none;fontColor=#232F3E;gradientColor=none;dashed=0;fontStyle=0;rounded=0;shadow=0;glass=1;labelBackgroundColor=none;" parent="CB2yKECdqtkoGCdVRb_m-2" vertex="1">
          <mxGeometry x="250.8387096774194" y="676.7718" width="40" height="40" as="geometry" />
        </mxCell>
        <mxCell id="CB2yKECdqtkoGCdVRb_m-3" value="Private subnet" style="points=[[0,0],[0.25,0],[0.5,0],[0.75,0],[1,0],[1,0.25],[1,0.5],[1,0.75],[1,1],[0.75,1],[0.5,1],[0.25,1],[0,1],[0,0.75],[0,0.5],[0,0.25]];outlineConnect=0;gradientColor=none;html=1;whiteSpace=wrap;fontSize=12;fontStyle=0;container=1;pointerEvents=0;collapsible=0;recursiveResize=0;shape=mxgraph.aws4.group;grIcon=mxgraph.aws4.group_security_group;grStroke=0;strokeColor=#147EBA;fillColor=#E6F2F8;verticalAlign=top;align=left;spacingLeft=30;fontColor=#147EBA;dashed=0;shadow=0;" parent="ZJDKhDsm4HpjwC9zdqOW-2" vertex="1">
          <mxGeometry x="206.45161290322582" width="753.5483870967741" height="1030" as="geometry" />
        </mxCell>
        <mxCell id="ZJDKhDsm4HpjwC9zdqOW-1" value="" style="group;fillColor=none;" parent="CB2yKECdqtkoGCdVRb_m-3" vertex="1" connectable="0">
          <mxGeometry x="34.06451612903226" y="8.754999999999999" width="691.6129032258065" height="1009.4" as="geometry" />
        </mxCell>
        <mxCell id="CB2yKECdqtkoGCdVRb_m-11" value="" style="fillColor=none;strokeColor=#FFB366;dashed=1;verticalAlign=top;fontStyle=0;fontColor=#232F3D;rounded=0;glass=1;strokeWidth=3;shadow=1;sketch=0;" parent="ZJDKhDsm4HpjwC9zdqOW-1" vertex="1">
          <mxGeometry x="227.09677419354838" width="464.5161290322581" height="1009.4" as="geometry" />
        </mxCell>
        <mxCell id="CB2yKECdqtkoGCdVRb_m-19" value="Auto Scaling group" style="points=[[0,0],[0.25,0],[0.5,0],[0.75,0],[1,0],[1,0.25],[1,0.5],[1,0.75],[1,1],[0.75,1],[0.5,1],[0.25,1],[0,1],[0,0.75],[0,0.5],[0,0.25]];outlineConnect=0;gradientColor=none;html=1;whiteSpace=wrap;fontSize=12;fontStyle=0;container=1;pointerEvents=0;collapsible=0;recursiveResize=0;shape=mxgraph.aws4.groupCenter;grIcon=mxgraph.aws4.group_auto_scaling_group;grStroke=1;strokeColor=#7EA6E0;fillColor=none;verticalAlign=top;align=center;fontColor=#D86613;dashed=1;spacingTop=25;rounded=0;shadow=0;glass=1;sketch=0;dashPattern=1 1;strokeWidth=3;" parent="ZJDKhDsm4HpjwC9zdqOW-1" vertex="1">
          <mxGeometry x="247.74193548387098" y="15.450000000000001" width="424.258064516129" height="979.53" as="geometry" />
        </mxCell>
        <mxCell id="CB2yKECdqtkoGCdVRb_m-20" value="T3.2xlarge" style="points=[[0,0],[0.25,0],[0.5,0],[0.75,0],[1,0],[1,0.25],[1,0.5],[1,0.75],[1,1],[0.75,1],[0.5,1],[0.25,1],[0,1],[0,0.75],[0,0.5],[0,0.25]];outlineConnect=0;gradientColor=none;html=1;whiteSpace=wrap;fontSize=12;fontStyle=0;container=1;pointerEvents=0;collapsible=0;recursiveResize=0;shape=mxgraph.aws4.group;grIcon=mxgraph.aws4.group_ec2_instance_contents;strokeColor=#D86613;fillColor=none;verticalAlign=top;align=left;spacingLeft=30;fontColor=#D86613;dashed=1;rounded=0;shadow=0;glass=1;dashPattern=1 4;sketch=0;strokeWidth=3;" parent="CB2yKECdqtkoGCdVRb_m-19" vertex="1">
          <mxGeometry x="20.64516129032258" y="61.800000000000004" width="381.93548387096774" height="865.2" as="geometry" />
        </mxCell>
        <mxCell id="CB2yKECdqtkoGCdVRb_m-24" value="Harbor" style="shape=image;verticalLabelPosition=bottom;labelBackgroundColor=none;verticalAlign=top;aspect=fixed;imageAspect=0;image=data:image/png,iVBORw0KGgoAAAANSUhEUgAAAI0AAACLCAYAAABcBxq4AAAAAXNSR0IArs4c6QAAAIRlWElmTU0AKgAAAAgABQESAAMAAAABAAEAAAEaAAUAAAABAAAASgEbAAUAAAABAAAAUgEoAAMAAAABAAIAAIdpAAQAAAABAAAAWgAAAAAAAACWAAAAAQAAAJYAAAABAAOgAQADAAAAAQABAACgAgAEAAAAAQAAAI2gAwAEAAAAAQAAAIsAAAAAX7bgngAAAAlwSFlzAAAXEgAAFxIBZ5/SUgAAAVlpVFh0WE1MOmNvbS5hZG9iZS54bXAAAAAAADx4OnhtcG1ldGEgeG1sbnM6eD0iYWRvYmU6bnM6bWV0YS8iIHg6eG1wdGs9IlhNUCBDb3JlIDYuMC4wIj4KICAgPHJkZjpSREYgeG1sbnM6cmRmPSJodHRwOi8vd3d3LnczLm9yZy8xOTk5LzAyLzIyLXJkZi1zeW50YXgtbnMjIj4KICAgICAgPHJkZjpEZXNjcmlwdGlvbiByZGY6YWJvdXQ9IiIKICAgICAgICAgICAgeG1sbnM6dGlmZj0iaHR0cDovL25zLmFkb2JlLmNvbS90aWZmLzEuMC8iPgogICAgICAgICA8dGlmZjpPcmllbnRhdGlvbj4xPC90aWZmOk9yaWVudGF0aW9uPgogICAgICA8L3JkZjpEZXNjcmlwdGlvbj4KICAgPC9yZGY6UkRGPgo8L3g6eG1wbWV0YT4KGV7hBwAAQABJREFUeAHtfQdgXMWd/m/7qnfJsi3bcu8N3I2xaSb0CyUHCYEkF/6XkIJNSXJJLnDHBRKMMckdIZQQAgSwE1KoMbiCu3HDvVvFKlZvK2nb//vm7axW0kq7kiVb5m6kt++9eTPzpnzv16aZ5P+cSVeB3+/Xl2HPJhUyGJxhOo8QNpUL37NVDVz4xem0BKaHH37YtG/fPtO4ceN49q9YscKHGN1ueKRnRnwedL6f/exnfpPJ1O30jGT6/u/nFjRs0ABAVCPingAJ6+655x5bXFyc1Q4XNkDAMyYmxlteXu5OS0vzIj1PuLABIAnfzednC8xw7zjffp8n0JjIXm677TYzKIk/HEjuv//+wT6feQiIS7bfbxoEdjMMRybiZaIhUnBkddQgCGfy+aTebJYSvKYW4U7jKERaJ30+f4HFIvk+n+/EsmXLqtqmsXz5csv+/fuZJwL4gqdEFzxoAl+2GedWX/699/4ozWJpHmKxWKaBc8xEY03AQVBkgaBYzWh9NLIQaKEHnnfowHqEBx3PTINnt9stXq+3Gt5ncBzHsdPvN2+22fz7QMFOhOYtJL9ehLsgAXRBggaNbApHUQxKIgvRYPMgWlyERhlts9mCDY2G1UDRDabLr85MF3GUAxhUg4bzCwTBcwYhgfMDmxYTQcQD9yoIwFSP51sRbjs8VoIabVqyZAn8DHfrrbdaOqKKOkxfPAcrqS9mrn2e/Kbly1eYARg2unL33ffDISaT+1I0zo3wmI/GS7FareLxePH1K+ITKuyyhYGHALkIpNEDJ6JEHQSMTh9nM0FL19zczHyACpnehf/bdXVV65977jk3n5H6UAaC/BMsF/37qrsgQNO2UnHvrKqqXYDK/yra6HKHw57BxiIlwUFUsPKp1bB8562MyBOBRLAASGbg2SwENABEarQT3q97vaa//upXTxxhGDpSn74uPJ+3CjWqqPNfggUhgvLKokWLUv1+6+2gE3ejAS5GK2igqC8UDWEGYJhoXyyXpkQEtUWzTQCIQvVbIIDPL1v2xAZmnq4vg6cvVi7rzIRKM2tyHQDL18EB7rHZrCMIDFQ2Kp9fsUKJtpUw7oXgQigQAWRHeZrIS1ejPE899dQTH+hC8MPBoaiV9jvf5z4HmsAXpigHwYKP8m5QkHsdDudQj8dDysIKZKVbznfl9cT7UTbNTq0ED+UwaHUrTSbf40uXLl3Dd7BO+pLA3GdAwy8qVBhcvPhBgMX3U7vdMZQ4QWUSSMzvhUZV2O7ROE19LLQxBuSe16GYPfL00788xARo7wlVAqJJtDfC9AnQhFIXqM3TfD7TzyGvXEE2BLXVi/PnGSxt25XEx4cia/BUoPTL/H7vEvAtF57xoyF1IsjOizvfoAnKLg899FCC2+37MWrhfhrf8KX1KhsiDs1mGutUG0CbQUsoZYdnGv1a2oNhedDpa4YNPVpC99gVc+QzQ+mi0NzY2LTLFhNz3xOP/ec6vgHvtiAvio332BujTOi8gSZUwFu8ePFs1MGzUJ0nkCyDp5O69JjMohuadcK2J7ujFZfvqq9vEGphPKgOMywbieqxBk6AVSjDIOUqt9uDMFaJiXEKWQnjhToNplC/s7j2IT2/0xljqa4q942fMuPpb99z18PIZ82aNWus8+fPZ12FQPws3hRl1PMCmlB2tHjxAz9A4zxitdocHg9aw5BZzlpuYePTOotvkl+pOkhBaMuJi4uXzMxMHOnSr18W7uNU48fGxitQJSQkCACsKAnrsaamRgGFgGloqEdajVJZWSWlpWekuLhEysrKVFi+z2q1AEwxClTok1JAYxpn40Bs/PXVlf7hYyd7r7v1yzan07kDn9XXh2bZdyNd1XuPj/CcaVjnHDQonBWH5/vf/7css7n5eXzV17Mx0KAgtWdHXTRQ2KdESlJXV4c6NcvAgQNkwIBsyckZJMOG5UpycrI4nQ7VuKQU3XUNDQ3icjUCSA1SWHhaTp08JUVFRZJfUChnzpwBGGPxHmeQEhGwXXUAjDTUVkvu6Inuq2663RMXH2+Lc1qt7qbmOovZ9MDAVPtvmea5ZFfnDDQolOovou3lvvsenAqK+idoRrmwT+gvpNvUhV84AUM2UlNTq6jEwIEDZfLkiTJkyBBQk36Snp4Wtr2Qr7D+nXkyjkHF2odqbnYr6lNYWCCffbZXDh48LFVVVYryxMfHq3i6o7R97NY+BExjfa0MHDrafdmNd3gBGKf4wBqtFo/TZrViNIc0NTT9T/8Ux/dQft+aNX7rggWmVh23rVPsmbtzAhpQlqCBCqr0raj058GOksCO2PdidM50ozya/TQ0uPC1u0BN+gMok2T8+HEyePAgiY2NbZWqBghxAowpR7B1x+m02sYNTY8UtKKiAsA5BADtUyAiBYyPN9hhZ+CBACxNrjpJyRrgXnDjV7zJqRlOv9dNwIgVAjxOPhvkrqREh7nR1fx+vNl+Z2KiqRz5siIPvQqc7tVY25rq5D4UMIsW3X8/KmMJg4NUd1vYNSiLgP3Uixdyw+hRI2X27FkyevQosJ6kVrlhw7AhQxuzVYAevgkFU+g7CRaysC1btsmuXbukpKRUkpISFetqCx4FmMZ6Scns7557zZe9iWkZTlGAMQtYEgCDwzj7bWaTLynJYWl2uQ/5PP6bs9Mc+3obOL0KmlDALF58/y9sNsdDZCFwZO5d1o7YCAQMZRWygSlTJ8v8S+fJiBHDwZIcqvlDGw30JEhR1MNz/BOal1AAnTlTJlu3bZM1q9cJRgIq8FBjo8yD8RXibnRJYlqWe+Y1d3iT0rKcfk8zwAUhG0BpBRoCxwCPJyXFYW2sd+fZLP7rUuMdn+HdvaaS9xpoQgGzaNEDv4Ra+iC+Nm2U6rL8QpW4qalJySwTJ06UK664TFEWu93gbrqBQhvnHGOk09fp/DGQzmNJaalsBeVZu3a9kntSUlOkmYBJyfBPXfjP7vjULLsZ3QpWsCEM1xEbDgUaBR5R/gFWhWdmT1yM3erzeCqsJrklJcG2preA0yugaQ2Y+5dC4F2EBlcSJyqsS+/UAidV3OzsfnLNNV+Qiy6aqoRdNgDVWqbYxWQZ9bw5DSCdZ6rtH364Sj5et05S0lJl8lV3SlJWjvi9oDAcTtFCUVpAo1gUgEM1H5+gCodO/4Q4hwWiostmMl2fHG9bhXf1uIzTpQaMppaRSeJCASSEJcG7ZXBSNOkwDKkLbSJNTc1y9dVXyaVgRWmoVLpzLauol/bwD+uEToNn+6e7ZE+pSVKyB4tJURhSFsoxBEWAFZHKBK7bsipSIoTzxMWC4rg9tWaz/9KUODuGnvYscFqbMs++UggYlcqiRQ/+J1gSZRhaNOkfNUAZlBSmEqpqdr9sDBa/WSZMGK/S1RWtKdDZZ/n8pcByGuXxixtSnidlhDi9jeKGvEaQeKnlEVgYhWqGYcILQyXjmEKuSWkpILJ26Y+ztcHV7ImPtSd43d4/19b6r0WcA3hPj8k4XZYtOqtiWHqZnv++++7/LiyjP6HG0FXAaDCUl1fI/PmXygMP3NcKMKrSWEOfA2eo/ibxoLHXHKiSHaeqxcehEcAJtUJ14JrA8OBo62+ECQnLcEAa5GlrPYDjjLXkuk2et+rq/P1Qb14CpyeqrcdAAznGSsMdKMzVaNOnjWEvwt7aqFuY7IjaFfuDvvrVr8gdt38JmkVS4GvkVxR1Uj1RN72ahgEY4xVbjtbIwRKXxNphfCFg8JCjhmAtUMChH8i1ARzcECyKwuhrBTKGZThQLPoDONXVzZ7YOOtot3he57CKAHDOus17pBV0X9KiRT8Yh6yvRuNn0g6DKoka2QRMbW2tpKSkyp133iFjx45RNUrZRVOfXm3Fc5g42lUNDCJwPjlcLVvz6iTBYRGIKwKupARfyitaZkFrK3YV9EOza+E4gnzjhzzky0iyW0DNfuW0mL5Pys+iAkDMRrdc1I3aUerUlJ555hnfd7/73UQ07t9hbxgOSygtklHLS+wlZqdgbm6u3HPPN2To0NwgdfncAQZNRYJJwKw5UCkfn6yVeDt61HUF46GmqKGEldeqtREOIQIj0XRY46yfMylISxCYrSb2xlfXudw7t2+fnZmeXrxw4ZXbMQqQg9eDr9SvjvYc+p5o44SG0/H9sMX8Hga2u6BadxkwFRWVSm656647lUX380hdWGkEigbCWgDmo6O1khZjUX7QixVlIVVR2pKmNOocoD54wGcMA0twUIui0KyoEp/hQLeUOOyYxtPocuedOOzbtnGt6cSRI3b0XbnMZtucpUsf30lxAke3uhvOitLwxWvXrvWhe+Au9CU9TOMd6gbZDn4UuOzYkcKwb4bGurvv/ur/GsBsOVot7x6ukURQGKOmSDvw/QEM+G91zdpTlIcPeM0/XuKHFa2i8QxEkipznLHf63UfO7jHveb9t6yb1n5oa6hvsKCz1INByA6vt3n6rFkz//D44483o/3MaL8uU5yoWQjzFer4Qhye733vwRHwf5LUAU6DJjRo2GsCprKyUgHma1/7qnAMC/jt505+UZUSQmE2Hq6SN/dVS6rDrARWKNECC654zbhCOK8PoOA1hWAiInDNdIgVpV7jiiIJw0L0xR06MR02v8fT7C06ecR7cNcm8/EDux1mq90Un2goEhAxrTg8GKA/BdyA/X/34uiW41u74xhPIRRU5m1YfK+D1hM1W6LQW11dI2PHjJavff1u1ffyeWZJrGBSh01HquUPuyokzYmRgiATmKRlCL14RsG2lRCs/eiPsNrya7AhI54ZERygLGZAqeL0Cc/hXRt9eYf3YB6y2eTEgDI6v/Exq2ve4kDKzI/p2qVLn3jv1luXQ75pmbHKZ5GconCRArV9jhepeAAM5iHZCRiSmaioFkkohzHk5AyUO758e68BhlSLMgTP58vpNxMwm8GSXtxZoViSoT4b6rG2xVDNprpMgx6ft7om1aEajTOLw+tGj1+a3T45U3hCdqx6S9b++QVrwdH9dmdcoikGgCFY2gCG1UDAeEnlUS9Lf/jDH6YQMOQaXamjLgVmwnwBX4RxvTn4Vv4jwJaieid5MxUr9uhShsnMzFDdAT2tIQEu/JLU163kgahy17OBFFbxQ8DshIb0/KflgjFTygZDYx5BocGhzgSGAosBDnUdAAqvjY/ALw0Aihv+A5LtMndEktirjsjWte+LA0CxO2MVUCK0iYXaLZSWUU1NXg7kD66lE20NdBk0OmHMpMCcJHsW+ST8okqHFUjDHWUYUpreYEmsXMBFymqK5S9bX5FjRQdVls89xTGAu/tUrSzdVAptx6g5BRhcEiikHC0UBvdhKA28FHUhWHj0S7TJJQDLjKHxkhpvlWuuu1bmLbgc7L4a8iAJSWSHurDQiIqU78Uoysk0ytLWFjmmESLqgAzOhGmTgdX3Utw+CauvBRnAx0w4dO4ox7Br4JZbbpa5c2erL4fRoojaecJtnvoweNyMaSmfHFgj179zm4x2DJVpw2aB9hiN2CZ4r9wCD6pcO0/WyC82lgpEGKUik7rQsbYIbFaaLn9oXfCa7c9wzUASgTY41S6zhyXKpJx4SYwBycJDfnRkNRyluH//AXyQ9eo+0geC9Ll6hhfUxo6x2f03bdr4BhddYnaYv0iuK6AxIWEf2RN6nV+kEQ8zTTj6LiKV0YLvjBnT5eabb1K918wYK6cnHQFjwTBJD4YUfLD3L9LoPio2X7xMzZku8TGJqpJ7+p1t808KQgH3s7xa+be1JRKL9rVBjiNgDKAQDUbrqHt1zR/Dk3EJmCaoSW4AZlCSXeaPTJRpQxMlGYkx/wYoGcXo8OTwUY6D3rhxs2L9bfMU7h5xTTTaQw0ffcncS3dt2PDxIRKFAHjCRQn6RQ0aneCUKRdfBxD8W2BAVUTAsGCUY6Bhyb/8y92SmGg0Xk/LMZrCNHsa5Y+bnpW/Hn9W+jvHS179QTmQtwfAmWUAB8BinnrD8Qtnox8raZD/WFcEbPglBoAJqsl4Kd+s369yofJiAIVGu0YAxQUhl2C5DGyIckt6AhdmMtiUAlxI9nVaGRnpylyxbdt21HGC+kDClhEJ8TtH/RM0fgz6MtVUV+bu3LXzJQDGyGrYiC2eERs9EDRkwR3/Io5hRWZBNCM7goPq9a233ixZWVmKLfUWYBqa6uS36x6X1w//UtLtI/G11kuqrb/sr9oj//H3RVJaVYRGNZZNi5zzroUgYNiAh4sa5CerCqUM8ocdKnEThVlQGS27GEKvoR3xWlENvIraUGmjV7IgLd8+OVXumJ4h4wbGwbprUBPFOwCWELwEM6jZ0YIF82XSpImqD691HQMoZgvkCJQdImhTY4PUVZdzeo13+LjJni/e8bUZB46dvokJomMzIibC5SGYGX1BKmP0YD9wPTLz94B0HpEHki2xT2natIsh/N6l2JKuXJ322Z41hXE118lv1j0q/yh4VgbY50qTx4WvDQInGs0qTimoOy7jkibJwzcuk8yUbPUltq7Y7udEs6SDp+tl0UeFUoO1CrLQY01A2FHDqsOR9hZc0x5DasRuABqEgS1QF5FRKXaZNzRBxgMosei8pFNgIGWIImtaqTh69JgseXKZxGMCIBtITTFGRTRjoDoGdPlik9Kk34DB7txRE3AeYMrIyPSnJtscrnr31uwk22wAH/huGUgX7tXR5CcYD+NkVkJjuhKsiWSsU9bGr44F4fHAA4uVttRbgGl0N8jzHz8OwPxW+tmnG4DB522ABsDBNYFzuiFPJgA4/37TEgM4AaE5WMBuXGjA5Jc3yjffyZNiVM0ANcTBr4BhQw1j6KUBnABoHAAMhqZJLajLMGhD14xKkqmDE0LAYmQE0aJ2BAhRynr/61/flj8vf1PS05IxRMInsYkp3uyh49yZA4dY+g0c4ob1HTOKHX70WWEuA0wgQHNsjF2g1VyfkWh9B+0EnHc8TzxitjSVwWoO87Caw2pkjWCJisqUYdT9bV+6Vb7whYXqq2GBesqFUpgXNv5SVhe8Ihn2cSDzLvS9ELCtQQP2DeA4pLjhtIyIHyk/veFxGZI9HAKqoW11J18aMEVVTfLvH+bLyopmGYHuAX5RBAq7B3gmteHZgcZxo2Gr0EU3EnLK1cOTZDoFXBpw4EiZ6LpSTUYcrRkazcLumWdeeFVscSkycNgYiU3J9CUlJHkxCB/cjnIXtC7kCXOnxI4fsFFvSrLT0tTY/Ld+SQ7FpjqjNhFbUUdmLzaozF3RdBcQHBR+Y2Pj5MEHF0sqRtn3JJXRDe1qrpffbnxU1p7+XQuFIUtCq7UFDakOvzpFceoLJN2WLE/d9qIMGzCqW8DRgCmsbJIH3s+TN6qa5RInpp+g0QkQUhj2XAND4gRlYeOWNPtlPMByAygLwZIaHzqTggKqwkynPxokDNT2I6yHylVa3Sxl9V4pqmxAf5ZdHBh1TrZoAVgIGMpInGTHgeiUudhDbscDOwbmYPqLB3menZ5k34b2AhcNL7caEO8gm1SvGTGw1GpgzrUiXR3EMLwpK1D4vemmG3scMOTRFGab3C75/ZYnZH3xy5LtnCHNoDBB17byg/dgCxiD2885UMoby+WB5d+WJbc+I8MGjuoSqDVgigGUBwmYiiaZjSEOdQAmwUJKQ2mSgGkAhTvY6JNxsK18a2ySXDE2RTISjfnj/JAo2rZt/GA5AhcGUIwbA1jBAkl1g0dKa5rlFPJQVO0Ga0YmkCwmJQAUWOECt0SN2ejAQjmp0zG+slypRJE+4OT3xifYrY0N7i/DcxuOlpeoUC0/nYKGK1MxKL7SL4LKpILKRJwVyQrg/CQOpOJUk550msJUNZTJa58uk49LXpd+josAhAa8JqSMbItQx3vtx/xBLU+xpUBbqZTv/PEb8us7XpThAI4WJkOjtr3WgKlxeeTH/zglr5c1yvRYi1QBHAQM+5xp/cWtbECYOTE2+dmERFkwKkUw51olp6lFZ2BRWWZr8i+kaOC6Ul3vljyA5OgZl5TWeaQakjSpRixeTBYIyoFYGhQGSIgdPyMrqodn6CH3owedXgpIONNIjPsba2r8jyJvZR1Rm05BQ43JqDTTzaFob1uRofekMjU1dXLjjTcoe0FPsSVNYSobzsh/b/yh7K1aCRlmshJ6WwGGmQmp5GDetB8qRwHb2ySp9lQIxyVy76vfkP/5igGczvIbCpifvX9KflfcKFNizVIBhNjRsg68gxW2Dl//JHzpj45IlpsmpUlOmjOYDdajAQKdoeAjxcIMdBtA0aAiqy2tdSv7T35lsxwsa5IGUBQM31RAIVi0VobkFWCxJIKingZVMVLlMx50wWtcME94h8XlavYlJ9mHNDY0X44gb+Jon0l4dggaLQAvWvTQdCQ5DZP1mQmyK0QL71RjgMr0798P9gKuKt8zzmhIs1S5yuS5rQ/L4dqNkuWYAjtMGwrT2et0bQXC8FtsAqvKcmZCOC6X777yr/KrrzwrI3LCsyoNGMoN//lBniw7WSeT0PdTCZTEg7KwVra6cAMZ4slRyXL9+FQZ0c9YgMD44NB8qLu21aeypQLoZ0b9clbBachLhZWNsqOgQU7WuKUSC2xAbJJkADIB+rodVINgIbUwKEYIKAJpMn11iQvjGlRGXZMCBfxwBSWb9zzRqn4rHr35yCMqCC5buw5B0xLMfwX7KDBpLSJrIpVhh+Q8TGpLT08nyFRFtaTV9SudRg1YyXNbH5F91athsBuuAMOGD+tYG1E4NmIjgJMOilMIQN7z+6/LC197CTLOyFZ514CpbfQowCw5USsT4zCRDy3lQBp7IbPQPQZz/82TM2Q4wKJzpvMf+tEajWZYj1U4thQcPnQpr22WXfl1cqDUJXvKm6GW+yQZlCQeRxqEJArXDE6QQGNX86LAZQJAQCKUWfQ9zrwx7lv7M1+KRSEtIxjukTLmJSJt/9wKl2tQaowpj3ItDqOAzCRcR6BRFmBSGyR5HfsoUMFGyYx4YX+ZEQJn6pTJYZ+fjeeZ2kI5CMAkW4eiA69JgZGVEdaFy6n20+dARAKvydco/WP6yT9KP5D1u1cr0Oh0NWCa0UKPrcyXJ47VyvREq9Sj1Q7hy2cL/iQ3QW6dmCYTBiXwVjkdj9Wmshn8MRpdA74JkupxAGTf6TrZetolu0Bd6kFlkkCxsgCS/ujtBDFRGpAnUGB0KgTSZKLGNa/4WB28Dj0CeWjlp54TKAhL+Yb5hkDW2OiGem7L8rhMl8Hn99jDKjrQAFlcksvfr9+gUYg4nqABIDrFDcHC1Rw49aR///6IFtm1fIWRw7IjMsE6gPkwAuPEK4sJuMe76c/Rj8GDQh6eM7gP1xRMMU3VIOVKUOVSalSQ6UjifdDCBonTHmN44Vc3PIcw/Hp1gTx2vFZmADBbGsCGAKLvDYmXr12cIRNyEkDSDbQwDoGiwIJr5pEWYLwCzghTAzaWV9YgewrrZUNBvXwCLWwPwDMDIOkHipIO4yDVdjraddBNqYaCsixMgmeWV7EUXjNg4MxrFc7wCjxTIeDfArBW4RkW6WLYFn5NXmTB7LEId675PQ6Kaa1cWEozduxYlWMsVrgARwJAE3HSGyuJy39w+iyXJosGEIwTrfPC+HK66UNxmsZKomUgykzVG1pL82mp9xRjTK0DIPCqcbdYjw5jVWiNBlhw7UGr4xF6jbF3AlBFA2CMH+vt2XPxevSMQ4UvbSqTorI8sAhDdWfFc3wKZQsC5oF9FbCEmWVLnVe+kxMrt09Ml4tyEzHcEghkKoigqQfLbgBF+4hUQuOh1Xjj8RrZdLpB/lDehFh+yQZABkPtWggDH62m1L44yIrgoKVWgUCFVLhQoGf6bF8GU3zDuA0JC0DRTx1IQ18zBP8RCdKpca28+GO8C+Ww1BtZu6rK709BG1XifThBKw+4sKBp6R73T+d4DYIG4cOG1Qmxwdi7qie5af+zPgdwlRyTJt8c84bUNFbJ2oIVCjD17gq5Kucu6Z+QAzsNSooldo0KxSVqSlUOz4GKYi2xS8FixiyI2kp5ZderECzjpKCxRO4c8yW5f/a3ZMwgzPeD04B5ehUAs7MMRheL/GtmjNwJbeiioUnKaMZwBCYbOJBNAyzwZw3ThrK/oE524ngZVGpbHSgbHwAkk8B2KA/puC7kS2lgoIaKgjAN5psH/9TZeAvhSZqgXwoKoZI1VGcGNABAT1UPDB+SHi6DaRthCHrDj/cc7g21Pdfs8nDG4kYcfBuTUK4dEMCWFA/j+FFEnkowwBmfkxGn3S8pBm0zubm5WNUh/Np27SJF6aG/1dT4fnLV6C9JeV2xrM1/GY2TJhXu7TI392VoKWNRIn6jodlU1RR4S0gNq28TlKWyRJ7e9oTkxoyT/XX75MrJWMJk9MXKVqOz9vz6Qnlg0xn5yoh4uXNCmswZmayMZnzOcbp0mi2pG/wUo0vhVJlLPsTMyS2wo7wDFZktEgu1ZxgOJ+qKDU4h2o3sOpBr1SL40TnmF6qvDTgwhNGojGuACOkgEA8G1mcVToc1Hqm0tL+RNkHEPwNM6hkSYBrIFgdo+RwwJXubfHPxTIOGwZRrBxpt0IMhbxD6msb5/Wo+lZFrHavN2dCa6jEdZUJg3Ri8uQusp01yYW/5xTBNsoFQp29JVcBlUHD9bma5Jdvan1+jylrrZIJhSWGIhxc/Pi1/OlEnq24ZjAFQyZIAiy8dKQvDaLBwoBQ1nj3QeHYV1smK/AbZDlO+0bljkhEACuWTOsRzId0m5E9NdkPWCHHmC7xfQZnNSOgza+rgj742oBUARwtggmFVuJb4Op5OjO/R15TfKPz6sBSFD9SZXSwEI8utDlg5wYnNtX7fxUynrWsHmpYAlklYONyEHm2CM/QTbgkSuGKGMA9LBg3KUT66YtsFPAuPlubvIBEEaAGGT06WHoHltAI9x/GSmzUSfS6GnGV8X0bDhKapKhVJu6Hivr27QmJgVf3bHSMknmM14XTamm0VwCJ7pARCLNTvx/Lqxc2JpWxBCLNj4zF6ENcevADwUWNqmAYrG8kGD/Y8UYVmhyYNg0afFQAZCAeRRrE7ykdsANyqe9wq4FMsoR+d9uO99mOefUADx/KYFUhQbsiB/Pi4cqgFGpqanYkX6eXZbJDR0OwqiZgY60ikkYDwtTjjZMg17UDD3T5gCSaiJ6rcRPhhBkCVMNwwE/1MxoJD9DvXjhWkKF5Trbyx+Tn58MQK2HJqISDHykUZC+Rrl3xH+qcNwheG1kT2mEO2cYsz8kzKMQe9z1kYORfqWPkF5S45WFQvKzF/aT2sstshs7A1x+OzjIGhj46qOPolVfps/HrkiwCi432p4g/wQIvb0QZkVzX0w+vT4ZeCIx7X8Tg7oRUiaeCQHaDsnkAcC2Qf3uOgYY/PtZGPgrMdcayQixxAp1pUAM8JPq7AbsYwCE9DnZi4NKjF1NTo9fg8TY0xwI9KiwAyQeEgDXI6sAagp2log6uWlGA/MIGUDE2qHWjwIOD8E9j4aAxCTHu2O/MZV6vKDlmrt7Pw7RLookdHOVF5BQz+vO0lefbgAzI6ZiEaKUmR/nfyXpDS907Lo7f8D9iMsfon2zE0LV1EJ1oh1mFUS02DW4qgDm86jpUdMMDqN3mwQFPdJmkgyWAKAMleF1vduFUdT8adeuyAdpSGYJQMqZfNBSXKYEvDkYKwr2gQ+q7Yd8QyMNUUJ5bQxxfPO+aL10no8CRb4z2PlFibONnZpZwJspZZEkEVA/gkJlVPNsPygyIIjh87Lr//3UuSAIXF6/FgrHej31VXQwKhHE+NLheIQBPXUvLZHc4Eq8lM+8l+TCjQL2unEdE+w8Hj9urq2gF8WSQAMFPs6Mvun63CRhPHyGL3fnWltI3Nnu/88mOy8tQfZWzcQpUn9lexQobHzZHVpa/J7uN3y9xxVwSjhkuLzVkFCsJhm5/m18shUJcGkIpENP6LMzKUPKPkKkQehNF2cQCAvifrcthIT1pcHACo1G94MS+xaFwn0tKOcVID42m0X8+fjZImJ8SIC8v019dWgTVZQbzMNrOFpsIWl5AE0ZyNiuxyXDdWZB+J648yMjKC1dWK0gAsyqiHOTSDQNDSCAa40DR5385RhsnOzm7n3+sebXJWWlMoLl8VyDvH7xiKKEvq8bslwZKJuVAlEbPE8An4Ysf0j1VDLynwsg5ZkSTfbHj1WvpFTK37AZgPnT6vFQmhh7qhRzgXGqv1c5aBa/8MGzZULYYd48DSxNSMWaAQF2hz5WNMafMSNKLFFl63Ao3WnOANBPhTmYDBnXT2GaW10+/kypvn3LUur3q9HwAJ1nZIhrz+BlCJli885FEgnuFDVRqyMNhYq6oJBjc+wuAt68eI3+KlGlZnTYGsTfWp24CfZkGh0XkdGiU0fKsHbSN1+FCJGcroyuX+KU5w2ktbwLRNjmXDfy79QVB0kVqDBmhinxMC+rjhuZ2aE76w0Py3SpePMPdJTUvhziN93gUauLN8MsgesKX9EHjjrLTsiiRBfiDbiYeBj6yGk9WskGnSMPKO8gZrs1Xjd1hj7d/M9xnA05GM1BTyVHD6049OhzHueNvGJ/Cg41MiVpHopEnbRUTYnICnzkRr0OgYqJdUWoID6nb4Ty4QmMM609Iyop6kpd/R1bOuypYKRAqoMarQ2nWOCXxtIWEZkw3d4ox0yI6mDo6XEZkO+RRzsNfC7P9fBehCwPhfNRQPMsxs9HBTm+lP+QTEKwEyihPaCQXYOAqt8OTEtiTYdvqpOUvQdqDeKsEXz/mOGMQxzpSiQvOhr/WZOQy9bsmxvtK2q5ZQLVdto3INQ2qZrepRJ9T6TCMfWXMiqIwdB60HTNjfFhBKiIG+lB0NayJi2d9EksctanrT6a/DYqZ1w2hggoRdAtqxUxO9Tfo25EzANCJsC3uyQgBEjxTCoB6QjtVipMMKZZWmxNvlivFp6rgf/UZHixvkH4cqZR0WVPzoDLosIN8oDQp1oBzYmpEtfYYvLtXBsABJOs5TAKhYnHMAKtqCBkBVd+IcD4GZMzGpAXFcL42JBBYByGsC3DAqGloXr6ly8/Va0DYyEv6XWaHjfgysS/WBQXkwsm+kw7wqhsSAmu+KKQYybgZ8Cg0Q4b18HsYZI57DPAj14ss9mOOjN8UKfdbT1270LTU010hZXSEKalfakdOcim6FIkmPT4EG45PKhlK0I1VqCsEtjnbSGPMgaEUVmDCH+PgrKi+GHQQzEf0ADkpbXFGIroVMgMcuqYnGWCCmwQZJibNhPniSOr4Ja+/h4jpZhyESz5+qkzwOvELDDYflNxaNyK8Oph6VAzXfCc+Yju5PPwwjIN//EYCIR4L+T7wEjYm46B2UNJzjAKpYXFMdJ8BA0ARrLWJMDQBE1RpskqP1CDCyx3RQPrYFrxX1wnO+OyZwpjoOQqgc+wc5X4KroXuxZC+FXdquvLDhcDM/M5Uq5MxssVp84DZwTovXzEotfOSRR5hlGo+DTnnwDru9vWy12r/qdjezSC2fZzCocUEWVlRUjPnZ/4RB5DcocGqK0CZot281uk9VHJLfbP8BCmiRenet6vshWXaY4sEqsGQYCt7obpI6d337KSysFKjNdpMD4R0AHCy1YKuV2BpHXaM/NtmaKPn1x+RHl/5Ybrv8zlZl0R9daNkoMHPk/3ZM8v8U3QePnKg3JmCDaiTBfpKDcxOtsSg5WgF5pNZBoxwJFA17xpmA4D2woc6IplgfrTT0IydR9hk2JO6ZFp8RA8wPnyMrCmBkjTT0EVA0/qkzgYeXq7lNoGYw68npgjwY8ZqxV1SDv9FVZ+L+bM1NjTTsYRp8A2x+blNDXbUPIwvs9TXVWObGczU2XV2nR3OGpTRoC5hD+X1EdqxQWhvpdANHjtX1EMi4lDXlo+ITUXCDEPKLqPNUA0D8cpgBknGwKFRsK4eisILrMSSiygPAKVLARrCRHKtGqMGQiF21hzDLgay7tQsFC8m6KjMaJRsDxa9PyZBrJmXI1ysQH0u7rgWIVpQ0yl4M+CaJGIYGTGDDImd8LQ/tSJVAIAEWA1TMN/vPWJsEh7oPAIRVTHCRJakD18oP9wQiKQypItPCP1PGEBCuZcOhIIiL51UYYWhHpPisXGU+gAkB01YMgBn7SLEufMiCz+QHZUeyJk+zywMouQEaTtlVht6woOFCFOq9Uf6E+xKjjBp1MDacw4yd2dAvHGpLwKKnqBBQGqREMHjZCuFyDz8ryC+WSVUsBNWC8TVsNiO4nbKRzRkQEpV32B9kQwHQqCFDtGaDDUqPUce1UzLk3tIGAKhW3gML+x3G0Kh5JGjZqQARib92vOJhRl5YPpW2fqjPweCQQ3DNorG+gQUsxwd2iGsvzpyhpEU2pkMAMV8QjwyQqWvj3s9V0ZEOu0bQKY35UYjPNCAgmrE0KOvIhj08HTZoieZkk91mUYOdVwTwGBY0eKXOcsQzBUdaDnvbsZEom7CZUDy8zkAG71mJxnPDL2xeVIUjBQRkKiTp2jE15fwck6NvOj+zYViHKieIY+TLYCXDsmKFBynQDwGaLSeqZRU6NX9/BgBChGwAaDj4E1kUX8dUWONMK9wB71b+RgzD08iBvkZqyBjToDPO+i7ggVvmnaG4IAApGybn4joQDnye3U/s//aAuQI8tiaXi4KwcLQ5XQeg4aOQl/G2DzgWw+jF0W0byGM0WW0FBkZo8SCIPEyb4Avxj7bIuhF0eAKTb4iBej4iO1YdN07xyo+qXABQnazHMIoXOM4GVHE2hNVktAI7JRlHH7zQ17pBW+75pkD4kHDKj7ghEBgELhgneE2AwF/FMz5AReX4nH7womZmUD784trCXtIQ1wFoSLxahQuJ0vqSrAIdXK09e/mO1UXyy8ZRLpqssvY6cIaS3cHDbngzb3RG9ozMUW1OiImXkdnxchM0rm9jWAXHCK8EBdqNEX2swREAWQqoEAVftJVqRKbD1FSS9Au55zUdwypKxefBgCHggJ/2Nx6rgMqPaahDhzEewU/VMZiWGp6s3qN/woKG/do6QDRnI0OsJMC0a1EjJq/Ty0kZLr+4/D1UqBWqd738etMPMNHtOEhlLIioIZt0mlgYYFHrOuTaIfeOWyT/et33jMWXsMQqnX5vp2lGeGhUhVGVBJDBwjBkAQCaMiRRHTdN8QiXKNkNDWwbBOj9tR7MRDBh2grCBQyCTIEHgYGMGY0c8FOp80XGPx8HnhtUREUJ/Bj50c9VUqqcTCN4qAuCjENNsDKA29NosfhOMwn2FtCFBQ0SB+1k7MiOlWsMIWYmoosTOdX2IWg/ScJyGHR2q11pQh2+LdyDMH7Mb6mvHCnaJCE2QaXdWz+sGqO5DRrOD4wUKQlGvhkYv8PjFlCcPAwV3YCBXYcwyOskhmHEQ2XmvCeq34bqbeRQFQfxjXRD/HCp/NT7jGs2JcOrI/Sa0QIPdDo6HFiUHwe4k9+LveSVmQkqt/r0FHgZF84PU7G6B8fJJ19jwTpzfI6JdFiqvhLAUXOjIsbpLL1Iz2jAo6uoL8FoOKxmSftMlGw0XNqMm2Xuh5mbVZh1wA3lDWoZLmxP+rFhQlmYrmeuIjEZFOjeBQPkp1fmyI9nZ8ol6G2nul6BiXRVOBiX6rNiSbgJNjJbHU7fE6AtQDDgqsHEQC3PeM2wIYdOh4FQST6/lQaNoAtLafBUGzCDAcNdsLBQ0DDmwoV+Ko9a6SpcuJ7yM4oOKypmJDR5q5XNJixjCof1MH4cPpGGDv2Sunypra+UlMQMBZyeym806bBdjKYmYHltsPgMLHaUgc7FiwCiCliPD2F8z2FoX/vQhVGPSXo02MUhrhqRRxAwFTY8k6AzPPSpBSR4B0MZIAlcGzGMMEwLpIPRoXtDL/fWOX02NabkkUeMgG1BQ0qDnm1/EVVpJBymqgNvwImg4W61ZWXlqrud853OhatHd4Ib42ZslhS8jhpVFI610MaR0tjQl1WPpdeaMVf9fLu2AGL+OIYnE0uT8JgzEsNFq5vkWGmjHEAf2GmwsyrMLefGHOx1JwszNB+j0VlkA0iGfKOuQaLYrK2Ag4Ch1aOu8cPuOJ/b1AgVvJJ187OfkRt1INMACxXsvYYjiAic0DTpH3Q0BHHlJfSIB/1678LISiOWCvH4Mda142xFlQVSGqfZKUWuU1KPNeno2FBnm25UL48QiABiPjT1YcnJ0volO9Qxa0QiFgholhOYJnMU45VLASCuOeyE8MzuA8W+EEelY/wE36gAw2fB5zpcwA/+IBncYIz2rNq0NFMNI2si0orSYBCWoiwQf0oAgmYEskOl7nCMMCkNF2OkTEMWda5cQ3MDpqueRiECc8bbQrrtfQcZY2HZ880FjgIfSQchz58325tNqYtk2IAMk8PAVIfwmD4UCwcANKRA+ZgLXg4B2oMG5zgy9ne1lX+YmEqXZ5W6PuM9eKApEuPhJp85QFvD2+A8pCRBxyF9xo2nCOeKaFiUUShRHZfBhHr5wuVuxBfAfhZDm1K0MPSdgVKEeoW/5pJiVjnanIfNKdr3OYWPc359SW10nZMK8eDUYC6YdAmWZfvi1HT5IpaUvSgnTg1b5ShELjfLcJRVSEvZ9AZYAqjBHdM02BbPxsHOUNC6E4wFeYZRlGtFaaA9ITmOuUjKw8DycoCmH7Qi5WcED/9LPlpURJz1rmNGmHNqUYXQJOIshRKDmZasDHbts0KUCxbPuFW/YUpBL6qx7FvkfO9guHDxjad96jcUPDpjnE0xANSHxyTUEZdWK8XaNsU4ODnFBhkU3doIrnp44aMBo64MwOApgUX2BFPNcaY9duyKYK0o7NEz4JTaDfDQTlNIMkUW1JnjY1KkotNFKizj9JbTauqCkdfKr2avlqlpV0h58zb0fh9VQLKaAyPpw2W5g2yBd6v6o8p9oTpWuT7YHupAYQigQelOuRjrE181IVWGJkD2yTsqflBqO0wlNquNBjzWgNHOIekgPU6BolD7GesFsxEYTLm2oNH+OJs+I2DIyEI8210yDEftFRUXKy2KASIBrV0iUXsYWYlzJMi03AXyrTk/kUfnfSQ35d4Lvu2W066PMSgc6/0DPFirMqpU0TFH254UlJ1U4dmJdyE7DR7WFL8dA0TQcqE9VxUekvde+C/ZsfJ12b9ltbeyNL/e53X7rDYrN9dQgraSWtCAGINldrk8NX6/tYD1MX/+/OCn2Io98aGekYCX7+F9JEeAUO0uLi5V+1FyjX76RcBapGTDPGeesQwHRpzVNlZgrlA/WIZjZFT2JBwTZf6I62TrifXy0fE/YfGj9zCGZRI6AvtDy8JYGxOoCGsvjGNeHaZE2H6oIBj57isaVJjsdslLfWKBH/YRHjh0TJIysqUo/4TkH91nPrgtISat30Dv4BHjPTm5wyxZ2f25u64NE/d8sZh32dTQfCItXhRo8OIA/+5A5TZy5t2NfUwZkJ+e0WLGg3a//DrdGDWXl5cvo0aN7AXAGG3Or6iuqVqe2fIDLAs/W6YPWoDNsoaoIZo5acOwIOIwmTfyatlzarusPfq+rCn6Daa3TsR6Npmwx2AcDVbQMorSAiAOlMi2pGMYaLGyatOE0Hlp2xW/T3voD5gLTp0uLERdYUwP5jxZ7U6O2DOVFp4y5x89YMNel57sQcNMQ0eOasgdPtKUEDcgxmq3H8bHX7u8zQrm7SiNnhSFGSx5WGpkPypxPNTRTkFDFMdhLf49ez6TefMuUStH6Mz2XI0aWaDsUdCwE2vvrZF3Ty2V2RlflRk5l2G5kfESa0+AFTVbLp9wvcwauUD+qeBOWXXgHVmd/xcscngGq0xNwnBIzLLAMAhfwCjIVO0YxFWHzTgoYHc4trXnCnJeUjpx4qSchtypdmgxlo9R+QBdgXDsxAa7Huvxg5/J4b07Yp3OWM/Ei6dL9oCBBrcJdFTqjLero7Vr1yph+NFHH3XNmDF7JljPJGhQFLU7Zfa011RVVcvUqVPUzrd8Qc+yKIN11DZiQNOpNyQNS9pjaLUcqForn+T/SU4UnxQLVsOKdyZgHAt3L7FLdmqOTB92iUzPno+ZANhIq2yDHK7fKA5/JgZsY8MJIIaHC0Mb+znS5YrJC/ElGt9Rz+ZdV/e5P+tycEufvXv3qUlynBEb6vCBg1mAAmEwncMZg4UlLJZTR4/IB2+99dNjp07kcz4ccaHjhAWCXj4Nzb6VRi8kSnAFI+nIoWeCpra2Vu1wFurfU9f65RzOedS1S2rchoqf6RiDXuBRAM9OeWzLlfLoyu/I33e8hmXe85FhH7oa7DI6Z6J84/LvynP//Lb8+8yXZFBCf9lWu1Iqmythp7EBQDGwZTSxnD2V3T6Rji4P2+XTT3cqKqNHJLTLIMrOjVJpzMVuLZKQlHz4smu+tI/hsFhjq4ppR2kYSCNr2rRZ9TD4fBUqtYMZAGqVWMUwbR0fkSAxU1OwuicEKtUInURpm0Tn93gzLQlOrDMzOekq9HVhxan6DQo8TnO6xFjiMV97FNRvrJRV+KJsOvaxVFfWw6QejykoqUq1TIhNkvFDJsslYF2zMy6Thtoa2Vy+UvY0HsNGGGPln2bc9LmkNIcPH5EPP/xIiRAaSB1VNp77IJqY0QG94tFHf/Rn3LPZI4MGpEilOXjwwIrExOTrMFUlB5EZsUPQ8DHVtoKCQpk8eSImm7MzsedYFAFDrQYjn6V/0mCZOuASGZc6X+y+VDlWvV7Kmo+AXSVgKm2qJFkGQ8syy8bi5bL2yAdSVFIKDckpyZgfRbYV64iT3OwRcsmY+TJv4JWS1ZQqW4rXyc1TvoTd54z9rHsM7KoWzs+PLsNHH60SyjSxsTGRqKluY7Sz72nsbbkHaViBh6DmxJKEpTR8oOe4zJo1Jwv7VV4ejVxDIx/33I5PiA8u2KgzzjTP1hE4LnedYjmcWZmRkC2TBsyUaf2+gCEOI+R07XE5Wf8OXpOOjkhQGNsgAClGPivfKisOPC4F+dXiaXJjymwK1sDDlsRYvWtAeo7MGXuJLBh2BSaXOQEaYzBWT+b7bMvdnfj8iFmG4uIS+ctf/qaGsERRJj8IhBlCcYnPZ/3Jli0bqmGfkVB5hnnpEDRgUWau8jlr1twmJHIXXmgjtcG5Q2qjEoRsU15errbFo0alM9+dgoeL8/7+V7C23WZJcqRgKivmQAE8SbGpMjZ7ilw8YL6MSJgvNfXlcqjmHQi4mPqKWZQJoD4pthFyCNsSLj/ya9lxaKe40XcQh6XVEsGySH0ykjM/N4DR9cam2rx5K44tSjmhlhvB+UAgABrfP5Yte+J5DsrD0S5Sh6DRy8Ju3ryhcNas2VfbbPZBeKm223T4bm7UXlJyRu1XyZ1Y6CLgrMO0wj3YdGqV/OHEItlXtFPOVFVClonDKg5JAI8NIEiQ3IxRMn3wfBmTNE8NJdtbsVLONJ0Ge0qBwJwhGbZhUtPcKCuO/lrW79sktWW1mM4aIykJKeix72E5LFwBzoGf/lC5fdKf/vRnJWuSC0TjEM4E5ec/tmzZtA9dB4pwtI3XIWgYkCzKoDazkkC2FoJFkedFfDuFYFKbKVOmRL0QdduMdXS/Ne9jZeBzWtJkX+VqWZv3kuRBZrH6OYY4BT2+TliKnZKTjv24c+fIjP5fkASo2HlV++Rw3SeYapeBjs4ELDw9EnKPyDv5K+WFHU9I+clqDDPIwTaFxuasPQn0jsrSm/7M//btn8qaNeuipjJkTdg45ST2C/vRpk2bGm677bZWqrbOb6eg0ZHmzJld5PH4qEXFgdhEZFGkNoWFpyUzM1Nyc4eod/VEI3Cy/sqjK+R4/V/BbsaByqRgwlmWnKjdgcloT8u+guOYn+zGSgvJYDVJ0IQwZDKpHzrsZsnsIVfIYOdEjDc5Kp9Wvc8tscC2kiTTnok9J8fIH/a/KpcNvFTG5o5XAndP5FcV/Bz/aCpDC/Cbb2KxSqzvzCG59I/gMN+f8oz35aVLn3yLBAPr7LVjTUyjU9BQAIIzLVy4sAosaizAMBmJcqGjiNSG/VF5eQXK2Kel9u43hCHUc/hDLKhEU1OcnKh7HzMSajHNFWv8WjIwaj9XyrFU/frTv8W6MrulrgbqttWQWSj3JMYmy7hBk2Xu8MtkasqlUo8FCt8oWSEN6PHNsGXJUe8RuW3EPwM0WMg6IERGqOQ++VjnfePGzbJqFTYgScZilZFlGcVB0LYeBL0PrOm0JhjhCtkpaBgB7EmxqDlzZmEIqO+raHjGMVoxXIoBP1KbUrCN5ORkGTFiuPLtPmgoe3MejlX1NV3U/1IZn7pQbL5kOVW3DWA5BiNdEihPIuYMDcWqEg2yqejv8tHRP0ppaQ3WynBirlEi2JZD4mAxHt5/lMwbs0BuGHidxDc75dPSjVJcUi7XYsjFpBGTzjKvgQo4DycChrJLeXmFvPrqHyGjQd+M/H0zpxCA7Wasavb2smVPLqUHCAZPYV00oFF0DTzu1MyZc+aCggyLRiDm2xwYaH7kyFEZP34cB3ad5RfMGZWYwgFeTStvZsIAmTJwjkxOX4D9n4ZKQc0hyW9YA2wZ4EnELAMrhN+dZavl3UO/lRP5pyEYYw2Y+FSo1rEKQAMycrDa56WyIPdyGeQYKFX1Z2TGmFmKrekvNmyt9WFP1s/KlR/Kp5BnsJVy1FSGHyXK/NDmzRsP33rrchCKFWFZE4seETQM1CIQz67C7e1InOwpIrUBj8SmYfVq/DB3pudX0J3G4ABwVsaJsgNYTOivWNQnDUMZuaKTGdsTpyt1m9RnIPazrKwvhrr9Fqa4oHsAa/EkWfuBdQ2UEzXH5e2jT8qeo5B7sM1IIihPErYg5iCkdKjbM8bMlIlDJ6PfKlbls/tUkTV27h1ZEOv36NFj8sorfzQ6JiOzJWZUq9lbCwqm/xBg8ePotABRgQYsSiVCFM6cOfNSLGmfC1IWUf0mQLhK1sGDh5RQrJfB72qDqPEtAM3p6lPy6M4b5GDxXgxlKMOkeSdWg6LAa0dHZZLq6Z45+HKZkHI1jHh+OVC9ChPMqhGOtppkjK8ZLqWuM/IW1O1P9m+U2nJ2M8RIUnyyojykQKz4C82xnplvrPkrr732OsY1lWOMEyYSwj8ah35DE9rzgRdfXPRZgEB0SGWYXlSgYcAWajOnAu13O5CNtsdVFA67GcqBA4eggk9CL2u8IplRRlWpa9AUVxfJDuyQG2cZIbsr3paP89+Q/DOGup0Yk4y16pxK5R6YNkRmDJ0nF2ddJfH+ZDlSsR0a13qMJx6g1O0sqNtc4+vtk6/J8zt+JQ1FHliQHZgsl6qsxFEUqc8FYX1S8P3oI2zXiO0GINRGkUe/F7KMBRNPtiYlJTwAOcaHQXgYRP5Ip3GjBo2mNldffdVRIHoekAxqw1Gkke02ZFO1tXXq4E4tvO8qm2KlHCzZLe8VvoQt+iaA9WRgHEyanKzbK+vyX5BDhcc5sQtWYvQ/gXVRY8qEuj01d6bMzLlcBtonyMmK/bKz5kMQ5FiwrRTJQjdDhjUXe3tvkid2PCnVJ0tl9qg5Subpav46reVefKjzyU7JP7zymiSiCydaCgNCxI8eh/nbjz32XwdIGKA1dUplWJSoQcPATJS6O7oWTgIvX8b7OPgkomzDQpBNsWAxMVivZcQwJqdcNBRHh2kAq3G7bFC331H7JdmwwVe8JRVUor+ccRXKmvz/lp15u9UWz0lOdDOgH4ngSY7H/pKDL5JLhl0pk5Lnigubs24oW465TrFgXTGS6ciUIfbh8ubpFfK9md+ThLhEioVKjtL57ItnDRhqSy+99LI0QH6k1hoNaBCG44Jpl/n70qVPKNKiCUOksnYJNEhUDdB6/PGfn4Tdph9eOg0vjYrasCBxcbGya9duGTx4EHZt6ddlapOBcTDTcxbI2OSFGFFvAZXZitkIh2GrSXaLS/kAABIZSURBVFN9TInWYWqhxg3Ff5R1R9+R0jPVABS6CKAx0dAXBxCN6D9G5o6aL3PQyelG5+qOsk9kZ/1BrE41AHYft/zrrG8CNAl9HjQaMJjUCPX6dSU3JoDKUCCO5BAXK0KYqWI3Qsr4CmTV4mhkGZ1ul0DDSPPnz1em5VmzFuz2epu/DCEqEXlgTknqIjqypl279mDMztig4UlTkoiREYBDIzITB8jkAbOhbl8mCabBcqpmpxQ1bgfbiYPMkiyJVvZuxwMQq2TVseVyqrBQbH4sJwIrMbUj9m4PzBgsc8ZcKvMGXS5DMZTi0+KNcqT0qHxpwi0yIDNHZaUr+Yom7z0VRgOG6b333geyavVqSUtNiVKOUX2BisrA7vY0Oib/QMBg7ZlohCBVhC6DBsKSn3r8iy9+r3rWrFk1AMH1QHdEFqUrjCP8mrD581GohmPGjI4oGCs2ATxyj8pPjr0L0NhV45PtpMRhp9oBF6N/aSHU7UlYXaFUjtX9DRPnsCGpORYdlNnoZoAgXL1f3jz4SzmMMSXN6GaIx7AI3bvdLxXUa9QMWTjmGmzuNUqyoH4PzBykstsXQUPA0DFvH3+8QV5//U0IvgRMZAqjImKWF9rMCgp1CFsO3vXJJ580dmb9DcRpdYqKOrSKYdwwnsr9okX3v42FGq/DRmGcbdZuoHqYuLBUWoQ9sGPHjJGvff0utYo2yWo4dVd/VS6sfvXvq2+B9TdfrhzwLblo4FwZmjFGqdv6HVUYErG/cIesOfKubCheoQZiZdjGQnDD6uT4jsqxYXuBa4sMsl8kXxxztxqENWzAKMW6dBp9+RwKmC1btsoLL7yk7DHMs37WWf4RJthvCNBdC1nmPRKAFStui5rKMP0uUxqdqYcx1oJUZ/r0udshU92BBo9HnqJiUyxgbGys5OXnqTngYwAeTrijf7ivm36chbDuxEq1/fCeig9kU8HbULeLVF8UDX3cbtAJ1sNpLNOGzJVJ6fMlDtsoH6xYL4WuQ+gFhzHPlirptuGgRFZ57+Srsnr/h1JUWILuBydsNUlBdVtTN13WvnBm3dCxLg4cOCjPP/87KBVOda+fRcon4mrh95mnnlryNNvwmWfujZpE6fS7DRoCBi+1/uIXPy8DmyrBWJSbQoSwiBSMYTlI6+TJkwo4o0ePVsChf1vg8L4clt7VJ99AviGtWPphBmW8HK/dKStPPCrHiivEA8NLInq3uWcluxmyU3Lk4txZMmfQNZJhHoK5zHmytxrsDUCKAevK4p7cGE6xoWSjPLZjidScrBAfiGVGUmafU7n1x8R62L//gDz77POg1lyTxjBd6MaMcPZAs7JiUc3dEP6+tHnzZo+WTyPEa/e426BhSgQOTqbNmzftmjFjZi60KfaCk9RFZVZtAc4ptYDA6NGjlGreFjisrNKafBjz/gzpxok+KL4CY5LNiWoweWHDYVlX+BvZeWoX1GnILLDVUOhlB2cyBpVPGjJNZg2ZJyPjZ2KjsGLZUfk3aFl+WIgz0G+VJrn2obK38ogs2/i09POly8xxc5C+8VWri/P4owHDLGzatEV++9vn1YxWqtaspygdLbEWNI0bp5ufeurJk/zgcXSJLel3nRVomAherNjUtGkXrQYFxQg/2wAUhvJNl4BTUFAgx44dl6FDh4JPw04SIMd8B0HDvRE2wI7iwCYaYIdKoCI3JIDYTZCI3m2Xp1nWF72I6blbpLS8DGwnVvUxqW4G9DWNGjBO5o++Si7OuFJMjSb5sPhVqOz1sBQnSbazn1T4a2VyyhS5dNI8vrYdxVOe5/CHoNBy3vr1n8grf3hN4uJjQGU4WzRqwCi+BsuvCcLyoqeeekKPlekWYFj8swYNqQ1Vtpdeeqlx1qxLPgFeboGgm4AGRaai7JdHBdD4V1pailmae6U/9sPMzMxQjcaebe5PmQdKsKXkLdhdMgOUBrlndeBgGC/AwxUgktDjzR1vd5WtlfcxHriwCAs6+tixmYouhhgltwzKzIXl9xK5OvcWjOPLxDp2n8qmmu3YAMMhF6eMk0snzoNR0Bi4RMCeD6cBw0FUf/vb22rYJjcsZSdt6AcVOW+ckuJkV8F/L1u25GGEN9HeFjlexyHOGjRMOmD0sz7++H+VYPbCXlCCL4MMgtJEJxgzDVYEhWGuqMUBROyjYgen3qOJXQjbS19S/U7GyuWMZBzqhB+mwc01sPoc5J40HIMwiW6XvHtsqRyEus2p3BxXw4PGvsyUbJkxapbMH36FTIodJ3nF+6W49pRcO+n68zbInGUgUHnQ0vsKugY4ZDM9PY3V1EXAiAeaLeSY5o+SkuK/HJBDFWdQiXXzp0dAw3cjQz5SnBdffP7IzJmzKyCkfQFfC3cnC6p5kfLICqNwR35NlbIOZvEcACcGYDpcuk8+PfOGJGI2pVctd4/U2oCG90hCVSypD1kXjX3JNvRuN5TJXzA0Yvexg1JTWYN9kxIlGYPJzRhTlpKQJhOHTZFrx18rw5NHYE7UMGxJbGyveC4pjQYM62nfvgPyu9/9Hiz7GHbui7YDslUNAzB2AuYgLBzX//znP69j+3Q0hLNVzAg3PQYavifQd0HBeMuMGbOsaPx5AA5xwy8nKjqvK45dDgfRM757N7odBg6RQvdx2Vn1F2ymBdAokQkv1KAhUJgBBRiCpuUZp/GS+tgw/TbDPlqqm2uxtPxyeXfvq1Jd0qQm/ydjaASnsSTEJsrwnFHnHDC6zKyiurp6effd9+Xll19RFl5qmIZuwQJG55CeMuBhkPhxzKi+EfaYU121+nb2pqgasrME2j5DhokP1YaLF9//C4y9eQhoh3f0wNFp0gjY4GoQC7oAEkdiH/WBJ6QxpgobfoF8Y7MwpkkGSJmQNmluFKaucU9/3tNQSj91TdEP48cY143F6I7Wb8ee21Vyc8635brJN8rk4VMxPCJdvT6QX52VXjnzHXT6e9q3d7/8/e13MdrxCKy8yXzSFYFXpYUfD6i1FdNQqlHueU8/vWQPlBVqSj221FePg4Y5RwaDk6xgMV4KvroIAp2qISKKYaJ11B4Uq4E8Yk9A1FysJJp5Wpqt2EHODQM0pt9yxctoQcMeD4roBJVF7PiK/VKMgVnbsajAVzJulesmXi9fmHGDJMad7fDUjkvYFpCcBbl69RpZv/4TNXOASkFXqQvfhnQxPsZmAWBcEJivX7r0l6vQFj0KGL6nSw3ICNG61sB54JfYcP5BSPAkQwRPVOp4q3chpxBRxAyQWNLc4htULq7kUmk2u8SHmZR+LwMAQwFq0xGl0aAxKBIoFQHE0augZrVQvzee3CBbFm+W6eNmqK9cq7yt8tKNG01VGFV/NyXQFrdu2QZ5cD2WaalUg/D5jJpTN5wHlNkKsJXhG7oVmtLanmRJofnpUZkmNOFQSR1d7x/OnDkjFhRnLgpFoJJRdBk4SoG3QEZpwOKCxQlir8OEfosDht1m8ViasLAI7DdQr9W2a8wMQEQOoLhAyLX202cPEOaGnJSAfSyPeI7IPRf9PxmQ0Z9fbrCBmVxXXVugEBA8zpwpk7Xr1strGNKwY8dOZazTIxpD43ThfUroBYXJ8/s9ly9btnQ7KQyEXtZzj7teAw1zGgoczGb4aPr06XUYyH0VKg5jObB2F40OXXaoeOYa4PHVYSPPMwniqMakOWzhgz4CdOE2itdE8kGwAJ/ctw8ElY2hQdL2rFibCu+X480n5Mrs+TIud0K3AMO01cv51gBIeOauwjRgrlq1FjaXt2Q7FhnCzA5lWuDz7lEXvs3EpUGgJbn3mc3+G7DX5MHeYEkslXa9Chq+JBQ40Ko2YfDWfjTgVbBQxqCi3AjSzTwY4PFh4zy/C1sDn4kTZxVG8bkwSBzLivjMkPssHmk2NSt5h3s0qgYlkIKHASQNGjA+OQnt6iqM1Zky/KIAaIgCAq+1C6UIodehQKFcUlVVJdu2faqmlSxf/mc5dOggrLzYywkDpui6BxYjKspj4ug7yIt/R1/kTUuXLs3vbcDwze1rQ+Wn539QsSaM2zBzsM999z04FaLNn8CuctGBphl4N6hOIJ+qFJRPsKQ72ZMZo/NjwXIS6qBt1YvbWSs1Zu6qy20HsQQ8hF8/1oH3gwqZICN56A/ihG1R5Vj9afnm2Fvkwdt+AnsRWJ9BOlpVCP06knW4uX1JSYmiKrS1HMW8L8outD+pPbEp2ENmCZduq5d0fuPB+63MA7qTfo107wNYfOcCMMxWVONfOs9/dE/xBfKT9QYKtuP73/+3WQDM85D2rwcvZkWSXXWP6iiWAAAAL34LWRNW5WoAgOqS0KGZjIk96MS0g/LENkqtrVoazZB/sO5wkzRKnblBYBBQewlY/FZxgTJxhqYFjUxHytHWab+Ghga1Hg8EfDUFmQsHFWPl9nws7ES5JTbWqazc2ppLysOjuw5AoyLhDRjt6tBVsxjzrp9nehR6Ubc9plZ3lsf2NdJZ6B56FirVY+P4xWizn0O7csAYxUKT4nSf6oTmETgloTCB+gBSWtTALvdQu20eAMUtjQCPAGg+yEFeXHND+MyUdPnWDd9XRj5ShZqaWrXLDMFNoDQ2urDzTBX6ys6oRYPKysrwHnYuWoIqM1fOoKZGinKWVEWVCGmojwqAwZ6hzZvwfX1r6dJfYJgDVqTHOwAm9emEFr+3rs8LaFiY1sBZPBuWy2dRIRP41Z4V1emwpnSdchk2AokwCvwF6tuvz3geuuw9GkkBgAAicLghGkHBQVBsRLKeUNdTQGGaSIvZpbCLTkdszW4yLamrq37kueeea8Dm6nrKiS5caDZ67fq8gSZQIhPAo+Schx56KAF18mP43w8hGWNYsRuEQRu6x7KiqjJQgVbhjOpoWylkRzzo9LUGhj63SqZnbpg1UhesAW3nwpS7cH0fhjasY/KhH13PvC76VNrWT/QxezBkaAXcf//909DP+XMYqq5gA+HrYsUxnz3Dsnow372UFImLGjRFsIDKVaL0T4E7LYE67YLcYuYSraiS1njvpcyES7ZPgIYZY2VwXwY9lWLx4gfvRt39FBrWUAqPYAufd/AQBKSulgBYWC3LYXt55Mknn1ST6QPsqPuSNFPsAddnQKPLEkp1Fi1alApZ5258ad/BWJtcUB1qH+eAbenc9P6ZZAVUA0AwcVQAysfFvn3/AH5+AbvLGuaAdYKFMzkmW5snej9jnbyhz4EmkNegrMN7sKx0j8f0DZglvg4taySZFXvOUdmsRJbhQmNdmqpQRrIQLCgPNcfVKA640BMf4JrOBKDw6BNgMbJkVLi+7nNnsixkij3myv5gUB7r7QDN3RiNfzGHTgRsH4pk46PFPmLqO+iLHwOBQsJCsCugMK8ASy3834bvM5jtuEE3QoDiEiyM16dcX6zcdhVE8ITKO7h3VlXVLoBF9E60weWQATJx1gAKkHtFfVi+81ZGAgTvV1QCecWWA8a0EwCF6NmJZ6+j//avv/rVE0d0ofsyWHQez1uF6gx07ew3LV++wozuiKAweN99PxxiMrkvBTZuRFrzQX1SaDdhByHlA7jQr5WGMHzgBjnq2rs7Da2oCEIonOj0cTaT9dABKMzHceTzXfi/XVdXtR62FlgWlWvFjgN+ffZ0gYHGqEc2PPux2gqHkH0Gw/62EG01D2EuQujRbDSNEbIyGujwjKBjQ+vyqzPTNd4Q/hfpMI52uFZJ8AwqYsHuN9gPGwfSUWEguGOzb9NWPMfqBLIS3HTTkiVLjA3A4REi4DKCEUnF7Ns/nVZS3866kTuyLlwF5R6d53vv/VGaxdI8BA01DQ03E/4TcGThyAQ7s7FxAwBSjcyG1o2t02h7Jvg0ADmqg73VvA9oddUIfwYHqInshHi1Gd0I+1JT404gj4rkMT3ml1sjAfShFJCPLhh3wYMmpKZVH0w4CqTDGJTIPAQfdTaIyiC09zBcE0gZOLhtDK/DOuIFRKoeWCsBvii8YrlQKUT8kwBHAcCZDxCeWLZsGRezbOVoXwlM87mgKEqrQoTcfJ5AE1KsFmMhWRgf4Avnlx3W3XPPPRQ8bNhuyBBAwoYCPGBAwbys5rS0NPbWB6lHaHBSEt5TcOcZxsoLlqIw/+Hc5xY0YQqrbB5sTADJhLP/bBs0ABBtI/Kdb/N+mDL3itf/JtB0VIHBOogs0zCJYHDeXDDCKzP7f+7/auC81cD/B3OjiXbX0Ak6AAAAAElFTkSuQmCC;" parent="ZJDKhDsm4HpjwC9zdqOW-1" vertex="1">
          <mxGeometry x="491.46483870967745" y="248.0559" width="136.280412371134" height="134.3522969072165" as="geometry" />
        </mxCell>
        <mxCell id="CB2yKECdqtkoGCdVRb_m-42" value="EKS Cluster" style="sketch=0;points=[[0,0,0],[0.25,0,0],[0.5,0,0],[0.75,0,0],[1,0,0],[0,1,0],[0.25,1,0],[0.5,1,0],[0.75,1,0],[1,1,0],[0,0.25,0],[0,0.5,0],[0,0.75,0],[1,0.25,0],[1,0.5,0],[1,0.75,0]];outlineConnect=0;gradientDirection=north;fillColor=none;strokeColor=#6c8ebf;dashed=0;verticalLabelPosition=bottom;verticalAlign=top;align=center;html=1;fontSize=12;fontStyle=0;aspect=fixed;shape=mxgraph.aws4.resourceIcon;resIcon=mxgraph.aws4.eks;rounded=0;shadow=0;glass=1;dashPattern=1 4;labelBackgroundColor=none;" parent="ZJDKhDsm4HpjwC9zdqOW-1" vertex="1">
          <mxGeometry x="144.51612903225805" y="412" width="191.8020618556701" height="191.8020618556701" as="geometry" />
        </mxCell>
        <mxCell id="CB2yKECdqtkoGCdVRb_m-51" value="" style="fillColor=none;strokeColor=#5A6C86;dashed=1;verticalAlign=top;fontStyle=0;fontColor=#5A6C86;rounded=0;shadow=0;glass=1;labelBackgroundColor=none;sketch=0;" parent="ZJDKhDsm4HpjwC9zdqOW-1" vertex="1">
          <mxGeometry x="1" y="854.9" width="165.16129032258064" height="149.35" as="geometry" />
        </mxCell>
        <mxCell id="CB2yKECdqtkoGCdVRb_m-52" value="EFS" style="outlineConnect=0;dashed=0;verticalLabelPosition=bottom;verticalAlign=top;align=center;html=1;shape=mxgraph.aws3.efs_share;fillColor=#F19C99;gradientColor=none;rounded=0;shadow=0;glass=1;dashPattern=1 2;labelBackgroundColor=none;sketch=0;strokeColor=default;strokeWidth=1;" parent="ZJDKhDsm4HpjwC9zdqOW-1" vertex="1">
          <mxGeometry x="45.806451612903224" y="803.4" width="71.22580645161291" height="64.89" as="geometry" />
        </mxCell>
        <mxCell id="Dy-3eP0yGJDW4lXVk-KF-4" value="" style="edgeStyle=none;rounded=0;orthogonalLoop=1;jettySize=auto;html=1;exitX=0.988;exitY=0.574;exitDx=0;exitDy=0;exitPerimeter=0;" edge="1" parent="ZJDKhDsm4HpjwC9zdqOW-1" source="CB2yKECdqtkoGCdVRb_m-28" target="CB2yKECdqtkoGCdVRb_m-25">
          <mxGeometry relative="1" as="geometry" />
        </mxCell>
        <mxCell id="Dy-3eP0yGJDW4lXVk-KF-2" value="" style="edgeStyle=none;rounded=0;orthogonalLoop=1;jettySize=auto;html=1;exitX=0.987;exitY=0.559;exitDx=0;exitDy=0;exitPerimeter=0;" edge="1" parent="ZJDKhDsm4HpjwC9zdqOW-1" source="Dy-3eP0yGJDW4lXVk-KF-13" target="CB2yKECdqtkoGCdVRb_m-24">
          <mxGeometry relative="1" as="geometry">
            <mxPoint x="384.36" y="304.6803693625669" as="sourcePoint" />
          </mxGeometry>
        </mxCell>
        <mxCell id="Dy-3eP0yGJDW4lXVk-KF-5" value="" style="edgeStyle=orthogonalEdgeStyle;rounded=0;orthogonalLoop=1;jettySize=auto;html=1;startArrow=classic;startFill=1;endArrow=none;endFill=0;entryX=0;entryY=0.5;entryDx=0;entryDy=0;entryPerimeter=0;" edge="1" parent="ZJDKhDsm4HpjwC9zdqOW-1" source="CB2yKECdqtkoGCdVRb_m-52" target="CB2yKECdqtkoGCdVRb_m-42">
          <mxGeometry relative="1" as="geometry">
            <Array as="points">
              <mxPoint x="73" y="506" />
              <mxPoint x="144" y="506" />
            </Array>
          </mxGeometry>
        </mxCell>
        <mxCell id="Dy-3eP0yGJDW4lXVk-KF-7" value="" style="group" vertex="1" connectable="0" parent="ZJDKhDsm4HpjwC9zdqOW-1">
          <mxGeometry x="20.64516129032258" y="910.0049999999999" width="51.61290322580646" height="76.24000000000012" as="geometry" />
        </mxCell>
        <mxCell id="CB2yKECdqtkoGCdVRb_m-54" value="" style="sketch=0;html=1;dashed=0;whitespace=wrap;fillColor=#6EA3FF;strokeColor=#ffffff;points=[[0.005,0.63,0],[0.1,0.2,0],[0.9,0.2,0],[0.5,0,0],[0.995,0.63,0],[0.72,0.99,0],[0.5,1,0],[0.28,0.99,0]];shape=mxgraph.kubernetes.icon;prIcon=pv;rounded=0;shadow=0;glass=1;labelBackgroundColor=none;" parent="Dy-3eP0yGJDW4lXVk-KF-7" vertex="1">
          <mxGeometry width="51.612903225806456" height="49.44" as="geometry" />
        </mxCell>
        <mxCell id="Dy-3eP0yGJDW4lXVk-KF-6" value="PV" style="text;html=1;resizable=0;autosize=1;align=center;verticalAlign=middle;points=[];fillColor=none;strokeColor=none;rounded=0;" vertex="1" parent="Dy-3eP0yGJDW4lXVk-KF-7">
          <mxGeometry x="5.808709677419284" y="56.24000000000012" width="40" height="20" as="geometry" />
        </mxCell>
        <mxCell id="Dy-3eP0yGJDW4lXVk-KF-9" value="" style="group" vertex="1" connectable="0" parent="ZJDKhDsm4HpjwC9zdqOW-1">
          <mxGeometry x="92.90322580645162" y="910.0049999999999" width="51.61290322580646" height="76.24000000000012" as="geometry" />
        </mxCell>
        <mxCell id="CB2yKECdqtkoGCdVRb_m-55" value="" style="sketch=0;html=1;dashed=0;whitespace=wrap;fillColor=#6EA3FF;strokeColor=#ffffff;points=[[0.005,0.63,0],[0.1,0.2,0],[0.9,0.2,0],[0.5,0,0],[0.995,0.63,0],[0.72,0.99,0],[0.5,1,0],[0.28,0.99,0]];shape=mxgraph.kubernetes.icon;prIcon=pvc;rounded=0;shadow=0;glass=1;labelBackgroundColor=none;" parent="Dy-3eP0yGJDW4lXVk-KF-9" vertex="1">
          <mxGeometry width="51.612903225806456" height="49.44" as="geometry" />
        </mxCell>
        <mxCell id="Dy-3eP0yGJDW4lXVk-KF-8" value="PVC" style="text;html=1;resizable=0;autosize=1;align=center;verticalAlign=middle;points=[];fillColor=none;strokeColor=none;rounded=0;" vertex="1" parent="Dy-3eP0yGJDW4lXVk-KF-9">
          <mxGeometry x="1.6106451612901935" y="56.24000000000012" width="50" height="20" as="geometry" />
        </mxCell>
        <mxCell id="Dy-3eP0yGJDW4lXVk-KF-11" value="" style="group" vertex="1" connectable="0" parent="ZJDKhDsm4HpjwC9zdqOW-1">
          <mxGeometry x="320" y="621.65" width="77.42000000000002" height="117.99020000000007" as="geometry" />
        </mxCell>
        <mxCell id="CB2yKECdqtkoGCdVRb_m-28" value="" style="sketch=0;html=1;dashed=0;whitespace=wrap;fillColor=#6EA3FF;strokeColor=#ffffff;points=[[0.005,0.63,0],[0.1,0.2,0],[0.9,0.2,0],[0.5,0,0],[0.995,0.63,0],[0.72,0.99,0],[0.5,1,0],[0.28,0.99,0]];shape=mxgraph.kubernetes.icon;prIcon=ing;rounded=0;shadow=0;glass=1;dashPattern=1 4;" parent="Dy-3eP0yGJDW4lXVk-KF-11" vertex="1">
          <mxGeometry width="77.42" height="105.54" as="geometry" />
        </mxCell>
        <mxCell id="CB2yKECdqtkoGCdVRb_m-31" value="Ingress" style="text;html=1;resizable=0;autosize=1;align=center;verticalAlign=middle;points=[];fillColor=none;strokeColor=none;rounded=0;shadow=0;glass=1;dashed=1;dashPattern=1 4;labelBackgroundColor=none;sketch=0;" parent="Dy-3eP0yGJDW4lXVk-KF-11" vertex="1">
          <mxGeometry x="3.706129032258275" y="97.99020000000007" width="70" height="20" as="geometry" />
        </mxCell>
        <mxCell id="Dy-3eP0yGJDW4lXVk-KF-12" value="" style="group" vertex="1" connectable="0" parent="ZJDKhDsm4HpjwC9zdqOW-1">
          <mxGeometry x="307.0999999999999" y="256.24" width="77.42000000000002" height="117.99020000000007" as="geometry" />
        </mxCell>
        <mxCell id="Dy-3eP0yGJDW4lXVk-KF-13" value="" style="sketch=0;html=1;dashed=0;whitespace=wrap;fillColor=#6EA3FF;strokeColor=#ffffff;points=[[0.005,0.63,0],[0.1,0.2,0],[0.9,0.2,0],[0.5,0,0],[0.995,0.63,0],[0.72,0.99,0],[0.5,1,0],[0.28,0.99,0]];shape=mxgraph.kubernetes.icon;prIcon=ing;rounded=0;shadow=0;glass=1;dashPattern=1 4;" vertex="1" parent="Dy-3eP0yGJDW4lXVk-KF-12">
          <mxGeometry width="77.42" height="105.54" as="geometry" />
        </mxCell>
        <mxCell id="Dy-3eP0yGJDW4lXVk-KF-14" value="Ingress" style="text;html=1;resizable=0;autosize=1;align=center;verticalAlign=middle;points=[];fillColor=none;strokeColor=none;rounded=0;shadow=0;glass=1;dashed=1;dashPattern=1 4;labelBackgroundColor=none;sketch=0;" vertex="1" parent="Dy-3eP0yGJDW4lXVk-KF-12">
          <mxGeometry x="3.706129032258275" y="97.99020000000007" width="70" height="20" as="geometry" />
        </mxCell>
        <mxCell id="Dy-3eP0yGJDW4lXVk-KF-18" value="" style="group" vertex="1" connectable="0" parent="ZJDKhDsm4HpjwC9zdqOW-1">
          <mxGeometry x="496.51612903225805" y="618.6468" width="126.18556701030923" height="137.68820000000005" as="geometry" />
        </mxCell>
        <mxCell id="CB2yKECdqtkoGCdVRb_m-25" value="" style="shape=image;verticalLabelPosition=bottom;labelBackgroundColor=none;verticalAlign=top;aspect=fixed;imageAspect=0;image=data:image/png,iVBORw0KGgoAAAANSUhEUgAAA3AAAANwCAYAAABu6ojXAABowUlEQVR4AezBMQEAAADCIPuntsNuYAAAAAAAAAAAAAAAAAAAAAAAAAAAAAAAAAAAAAAAAAAAAAAAAAAAAAAAAAAAAAAAAAAAAAAAAAAAAAAAAAAAAAAAAAAAAAAAAAAAAAAAAAAAAAAAAAAAAAAAAAAAAAAAAAAAAAAAAAAAAAAAAAAAAAAAAAAAAAAAAAAAAAAAAAAAAAAAAAAAAAAAAAAAAAAAAAAAAAAAAAAAAAAAAAAAAAAAAAAAAAAAAAAAAAAAAAAAAAAAAAAAAAAAAAAAAAAAAAAAAAAAAAAAAAAAAAAAAAAAAAAAAAAAAAAAAAAAAAAAAAAAAAAAAAAAAAAAAAAAAAAAAAAAAAAAAAAAAAAAAAAAAAAAAAAAAAAAAAAAAAAAAAAAAAAAAAAAAAAAAAAAAAAAAAAAAAAAAAAAAAAAAAAAAAAAAAAAAAAAAAAAAAAAAAAAAAAAAAAAAAAAAAAAAAAAAAAAAAAAAAAAAAAAAAAAAAAAAAAAAAAAAAAAAAAAAAAAAAAAAAAAAAAAAAAAAAAAAAAAAAAAAAAAAAAAAAAAAAAAAAAAAAAAAAAAAAAAAAAAAAAAAAAAAAAAAAAAAAAAAAAAAAAAAAAAAAAAAAAAAAAAAAAAAAAAAAAAAAAAAAAAAAAAAAAAAAAAAAAAAAAAAAAAAAAAAAAAAAAAAAAAAAAAAAAAAAAAAAAAAAAAAAAAAAAAAAAAAAAAAAAAAAAAAAAAAAAAAAAAAAAAAAAAAAAAAAAAAAAAAAAAAAAAAAAAAAAAAAAAAAAAAAAAAAAAAAAAAAAAAAAAAAAAAAAAAAAAAAAAAAAAAAAAAAAAAAAAAAAAAAAAAAAAAAAAAAAAAAAAAAAAAAAAAAAAAAAAAAAAAAAAAAAAAAAAAAAAAAAAAAAAAAAAAAAAAA1n7xygJUmWMFzPNsfqiur7bNt+a29X1h17Zj2etTW6ldlr27Zt28bY6o2/O3NsT9//O+c7dXtx1NmVEZmRkTuPKnzeNBXbN46Tjp2bGr6Tlos/rtqU/LrRyV+Cpiy/xT8PllxR8P/sNO67X9r2nG9/PCKEEEIIIYQQsvr0HVX4hMkbYpPHfzVOuhorB2ZOTk5zuVT/vl19Un07tTJHn5V15Gx1vPqi+rCxyU36vDC1yQnGyZFZHg9NrfQ2Nt6p5OSfplz4ReO4JNm1qdPXR478w0cjQgghhBBCCKlnkPwgSUttspexcopxcps+X1PnqZXNzMnqS+qDJpfrjU3O06fLbHyosbJPaqVblifbpLn8udRU+CF2DbH7FxFCCCGEEELIJkUl+lB1R80m22I3zTi5XJ+vqxVadaL6SmrjR7HDmFm5Qp9n6dP6BHCw/t3HONk1y5P/a/L3h8wWflQtGz3u21/mDiAhhBBCCCFkjUFSYXL5V5bLviaPrzJWJjBJW+9OVd9QnzRO7k6tXKt/n6PPMkpAUyfDMysD1S5IpDNX/Lv6K2OL3w27gSNHRh+OCCGEEELIOsOc2P6LJduxbeoK38YRHFSfIRZDTKYORIxmrIxIbdxP/XepSVpFhKxvuln5KgZiauNxSCCYTG32ieCbxsbP6PM+9Tr1QvWU6vfr5BBfEto7zaVUcrIlmsSExjC72IYWvcZ++7MRIYQQQshmChrcYUMC1U44+pLm8e+QXBknO+BYDI7/ZDY5QD0W/RJSF5/rF8/v8bHwa+qktYjHXkqtjM5c4feoZIsIWfuEreMXTF74r7Hx0Wj4oc5XK0FK/ZgY788FPmZyudM4uQa7gvo8DmNH3U/ds3Y+ULbHri26hRoX/yCUh7JD6KpACCGEECwgYyEZx3awsJyVkz+lLvkfGtAh1jB5srd+3h8xCCqUEJOgUsz3YHhIfV59X521icVUjxgXm23PiT4SEbJ6ZZEN7TD40QlyIwxsSmf4EtHH8aLFKpcfi6dg9UufI/FiNi7pj51BLDA0WvkNXuAoWWg8PmnZzf74YxEhhBBCNhm2Par1pzBHY+EW8zXmbszhmMsRd2JexxyPuT6zYjHvY/73Sdd96uM+PpjdDGKhB1GCGRGyItAoA+fYMGDqZOBTOsmXNTyp3oNE0HcMPRGlCsbKwbVEUHrVEsF4K5SI6uef7lqOG7Kxndqwe2hzhhBCmHBlJxS+hoQLcSJKC1FBk7pkOyRc6u7V81x5crhPuM5SL/PXM93nd7ne1s/T1mgep/MyJ4OiACFoYlGyyR+NlTHqK8sfPJTS1MoUnBdUn1PvMy6+0e8KnlmbtJLDqgeTc9kNkxrOieIOQZSJop4ekx/Oj2IyjAghhJD1ABYd0RQjlBUizsNZLsxJmJvQREM/D8EZd9/L4KRwniuzyR2+Q/aL6nh17qYxB1MsPPOYSTMHW9bYnlZf2OgDklKWiT4fSkUXlomKDaWiKCfBpFt/paKEEMLdLSRceJeHckJUgaxKSSESLswboaSw/hMumlm5oRk2jmPnSGxz+5WVCqW0/nYH9fksdgfxkjc2uSR1csbC+wWTYVh5XdHuoLY+/mS0AEIIIWgkgSSrS7nQOuxqoYwQ1/PgXYpmE5lNeqIcH826UI1RTbTy+DSU7IedrczKA6Gc0L+zK5Sugdf1HVX4RETq+0LtNJc/+3rkmaswKCilTAbn+JXcF9RHEHiEjqJonax/j0pzOQjBCoIWXDgfrpdozJOfGCtFBDq4ByfaQBBCyM6jCp8PZ7Uac/l+ZuOf471krGyR5fGOWLxCiXsoH8TxEX0eh3dbZuUK9QZ/Zusp9SV1/CbaKIPSM3mXb51eIOgPlT63kQcYpZROVt/AXYMr2h0MZwezPNkFq9q4+BT34WC1G0khgjKsgu96yvc+E21WEMJW7/jtVhOrcUmC3/TCUsF4K1wr489m9Qm7WLUEK8lDgoV3hr9z665FGmO84pOsGc3tvUop5s6I1Ad4MZpcxnJrnlLaTMpG31efD8kh7h/0Qd5l6jmZk5ORJBonR/oV98G1ncO4u37uikQxdB4NyWLnpobvINA0Y7/9TQSdPGNI6u28VZdyh2/U7t7sVMCYD/dnVX8HefJ//C6wkIKkKpQGQnTtDY0vwp1a+vmiUCLoE6vnFtm9mr7e3gGU0vmZi/8Tbb4QvHiNlSvX2wXblFJKJy0sLQ2dSOVuBK8QwSwMTWjC7iICXlzP4oNgNe5Ra0wQGwTKEGdpFk0iYckVBUF2yXZsi6B7008mSTfb8tPhu8Llwvj+IHaQw/cayvpgagt/C2MAYlEBYwNmLt4D4yVcRIxxFNq0V83l7FD658fgrRiT4XJi73joy6IrlNK6853SmOJXIrJ5nW9D5o0V52Y1WCmllM5dJDh/FcF6aGBTNZdbENSHs4vBULYaDN1OkRwsapbHQ5E4BMOuJRKLtRVJSqVSGaza1fCcVXHWnOnndfuAvXuAjiRb3AB+17at9K388WzbttPVmXm2cfRsI+nbs7Zt27ZtG5lN+qXO2puZZvXvO+d3uKxv9BU3fuGcJ/8/Pv4YFGr1uGtxfB6vOGbFsXuS86Zd8iQ3T7vVOOoV4PMCoT/i223FxxMfPsvWBIA+8mCz2bys2YbcN3H3oB1LgKmR+tBrQu/GFbfiTUrTzplBqQBgwJUWQHZ46L1IPj785hLcKgkAkwYcQIvVs3eH3ojU0tBL83pl/zYUDQAGHJQAFJ/oCdLdzNr4/1YsHix/+EH1JgCUaMBdasABtNbIeHxlkG68oOTNC+eN7Nt5ird1oGgAMOBKAKCa4lZBOpvi+z95imd2oGAAMODKBeDefLP1lw/tj3wpxZXzemVrP+gAGABTBhxAe1RT/FJob6RWj5/KU7yhA4UCgAFXYgC1lB0bpD3J//N/q+cp29kPNIABZMBdYsC1CcD48PqhtZFavVLzkhIABpUB1z4AtRS/EVoT+dw/h5atNuK2XSoTAFyBKz+Ag8P8R6rj2evyFC+f1gSAQWbAtRXAxGfHXrBCmNf4rltY8OHvuk1MawIQMeAuNuDaCKBe+WiQmWdkPK6Vp+zwDpYFAAYcgM8J/CvIzDJSH3pNnuK1HS4LAAw4AM4OM4m3TGafL76E3oWiAMCAA2Bq9pwNVgvPFc+7vXnhvBH/+cwHEgCYak5dZMC1G0D2iSDPnJF/D69UvLKz+0UBgAEHQPbH8PSRWRtvNJSnePG05rMDAKamJg24NgOopXhoeGokT8MvyFO8pofKAgBX4AC4s/ikWZDHko8PvzlP8fYZHUgAMOAubP+AA2B0LMuCPJTiocA8xftnfCABwC2UHRhwAFQb2edCCJI34tfyFCdnfhABgMmpuZ0ZcAD8znirZz/ug6IAwBU4AHYLA5tmWKB4FWefFAUABhwA5w3seKul7B8tOYgA4BbKCzoy4ACY+FJ62SJhkPKJHcNCeYqbKx8ADDiAPjQcBiX5ZusvXq3HvZQOAK0zOdmpl5gAMNKIHwmDkG/+c2ixPGUHKB0ADDiAvlWP3xuU2yZ3VHg7AGDAde4WSgAqfxuAt01WNlE0ABhwACWwS6nHWzVVxpQMAAYcQBlUUzwplDV5I/5eyQBgwAGUyA3lHG8p/ky57QcAcycnzu/YgANg6hN/XXuJsl15+3TxP6ZcADDgAEqn/j+VUJaM1rOX5ym7R7EAYMABlFF1PHtdKENmbfw/6+UpXq9UADDgAMqqVs8+FPo9o5tky+QpnqFQADDgAMqsluLsEnyoO9tTmZ0HABOTD5zX0QEHwE9CP6eWKn9QIgB0x8Tc+zs44ACopfjn0K/J6/G9A/TGSQBwBQ6AzUM/pvafjdappniTAgcGAAYcAI24T+i3fCm9bJG8Ho9TIAB0/RbKczs34ACopezYfvxY91+UN4AAMOAAODP0U4rvHvTGc28AwANz7+vsgAPgsv4Zb5sOrZKneMOAFgUArsABcGPol+Qp21lhPQUAV+DO6eiAA+C+fnnu7QuDXhYAGHAA/Pznb1449HJGN8nWzFO8ddCLIrvn4R8Hl+WpcmGe4sl5Ix5dTfGgZ/Pw39dsPQDun7inw7dQAvDZsRes0OO3Tsa9S1uAQXZeXo+H1BpxizzF39RS/EaeKp8dacT35HOGXj3SGI7Fs4/zc5ahGHllOWYABhwAxTexe/itk5WakvraHXkjnpCnuPm0n4w04keqjaH/yzdbf/nQoeT1ytZ6AGjbgOv8LZQADIdezMi/h1fKU7xZQX3j6mk75in7TrUe3zYyHtcKPZBayn6tm7IADDgAirvUQi+mlmJSUM96cNo5RUfVehwprqqFHk0txdn6KgvAgANgdCxuGHot1TnDL3t4JDR7Bpc8NKqzT3wpbbhc6JOMNuLby9IBgAEHwEjacN3QS/n5z8OCDz831aR7qinOzVM8uHixyMMPSvZlqmloI30CtGvA3d3hAQdA8ahSr33z7YuK6aJiPNcrX5m18f+tGEqQT+z4f4u6mgvQtgF3dmcHHACz52ywWuiVFN80qKZ4k2I67oa8Ef8ya/x//j+UMHmKV5ahJwADDoDiZY899MKJyh+U0jGT1XrcK0/xw19KL1sklDh5ikfou/UA7uv8gAOg+CRXL2R0k2zNhz/u3KStJqftWKsP/W8YkOQpblmG7gBcgQPgC1u+cKkeedlEnKOQtnpg2pZ5/X8qYcBSq8df6B+gLVfgzursgAPgm/8cWix0O6NjWfbwWw+bLce9xa2pz/awY/kHXKVWhi4BDDgAfv7zNy/cA7e4ZTsro/WKZ9y+MCfbIAx4RlL2ljL0CWDAARCaYYFe+Gj3lDJa6rRqvfLGEKRIPj68fuuPMQD3PXCXAQfQ4W8198LzSbsqo2WF3jTtS5/YMSwU5NEUx+PhZwCbLQVgwJ3Z0QEHwP3dfjvg8LRJRcy/Wor7Fm/yDPJML8m5qJ/7BTDgAKimeFe3B9zmiphvt9dSrIZnjeT1yv6tPe4A3PPAnZ0dcADcGrqV2n82Wme+b2uzwA8qjmOQ50w1Vcb6uWsAV+AAqKZ4VfcGXMr+oYR59mBez348ozfQuIXy+33eOYArcACcH7qRL6W4cp6yexQwT26ppqF3hhlFRhrxIy3vAsCAO6OTAw6A7JTQjdQa8acO/jw5Y3QsbhhmHBmtxxf1dfcABhwA9XhkaEH+y949QEmO9W8AvmvbVicZ/PHZtm10qnrw2fZ699N6ZpLqtW3btm3bZq29g7rVSdXznvMc85d76vTbN7l3eo50v9IDmDZ5K9nl+1v/3zxBpitDm2XzWUedBXDvg3d29xVKAA4YiZMnv2Tw06Z9AMeqq4aZg8zo2ru5vusAwA4cANmuI3GYxCEGPw1a6bqhU1HgTrSmOgqwA9fFAgdAs5Vu1eW7uEYnjTJ93PCnyuONIv116GAUuGy72q4HAAUOgCKd1O3LlDcw+KnyeLNMx4eORvJWtoa1BdDJAndHFwscAHmR/buLVwe8dba8TG8x+DfWbCW/DR2PNIukaX0B1HgHDoB/OLykYppF8tcgUdJsDXzQGgPo6A7cmT1a4ABs9LRPTDH0kdwSlcEp6TLWGUBtCxwArfTHoRv5zuT/XahRpg8a+mtrFunurgqInCfCTI0yvdd6A6hjgQMgL9LBbh1e8kMDfz3ZaS7p7tqrvGdZbwCdcc+Dt3exwAHQLLKvdeuP5uMM/DVd1361L4hXeQHqV+DO6GKBA6BIPh5iZ/zwwLKvfvcbeZk+0hhO3x+6FmlfjG7tAdSxwAHQLAfe0oU/mLNfGPZr3qT+p9DVSF5k46w9gFoWOACmjFqxCwUuOcKwX0WRHDgSh5YocMkHrD+Azrjr/m4WOAAmlisvEPny7nTR9muChv0Kd4zMd28ytFm2tPUHYAcOoI6fX7VPVY/9vdEEw36lvJV9N4xkXCVwt3UIdIQduNO7VuAAuKkbB0bsZ9Avl+0dRjquEjjDOqwZQIED4KIQM19fb9m5GmV6v0G/xP2RPzyUqUjeSnaxFusEUOAAaJbZ8ZEv784+ZdAvlZfJX4KMePIiXdt6rBlAgQNg3xAzeZmuZ8gvceXPNhqYI8iIp1kkTeuxEwAF7lYFDqB7h5hsE/s7o/MM+gXNMh0fpBJpX55uTdYKoMABUCQbhFgZPzywrCG/xKUTy7fOFqQSaUwau6Q1WTOAAgfAPyKePpkNGfCLtNLvB6lUXCUAMOPuvO8WBQ6gW4rkZzG/f9vGkJ939aqrfmjWIJVKs0xPtzaBGabAnabAAXRHs8i+F3N340pDfk7yuyCVS7NId7I26wJQ4AAYbKWfDjHSnLTKcgb8vJt/PGnsvEEql2aZrWl9AjNKgbtZgQPokmY58JZIu2/Jdwz4OcnqQap6F9yg9QlQlx04AL5Xjl4q0gEmyRQDftpj4zYdvUKQSmZwSvoOa7QmAAUOgMeinauRl8k5jdKQ8yLdJ0hl892NBua3TgFm+BXKUxU4gK64McTI0GbZfO12+BTvqLaSzwWp+lUC11ur0w/gjvtu6s4OHABnhRhptgY+aLhPu/rrO4dZglQ6jVZyhLUKUIMdOAAOCDHSKNJfN0oDbp9wGCRCfK/ZhwAFDoAi3SLSK2nZdo3SgIeK9P+DVD6NMvul9QowQ69QKnAA3bFOrG+KLjDc9KIgtUj7MsTKrycABQ6AVvaL0Om0L6x2gMnT1gpSi3x/OFvJegWYfrffe4MCB9ANrfRbodMZLAbebbjt0ydHvSdILbLqqmHmRpneX+X1BGAHDoD2YZGh08mLbJzhpndEu2BPYr32e5Z1CzB9brv3hlPiFzgAhiZnWeh0mmX6n34fbN5KdglStwK3c5XXFIACB8B3NxqYP0aB29/1Aen4IDUrcMnqFV5TAAocAPfH2sm40tZmunKQWiVvZd+d3ucNoMBdH7/AAXBprBMoH+/zwd4YpHbJh0e9dbqfOYACd3L0AgfgLb/DQ6fTaCVv6vvBFunuQWKnv/75AKDAAVCkW8S4EPnLhpv8LtQ1DjK5tqLrCkCBA7BRtFrodBpF+uu+//6tTN8XpK4F7tAqrikABQ6A9nVtodPJy3TjPh/so19fb9m5gtS1wG0y7c8cgFvvjl7gACiSj0f4Bi7dr88He2GQ2iYvk59XcV0BKHAADLZGpTF2MM5zgInUNe3/alRwXQEocAA8HuVNv0aZ3t3X76W2sjWC1DZDm2VLV3BdAShwANwY5Rh2J8Mk3w51j+/gbqvYugJQ4AA4OXQ6Q5OzrO/fSx3O/i9IrdMo0qOn7bkDcMvd156kwMUDkLeSXUKn05gy6kP9/l5qY4sV5wx1j4NMJvuRAFDgAKokL9P1QqfTLLLv9flgbwhS+zTL9KeVWlcAChwArewXMe6A+02fD/bUUP2InWSACAXuGgUuIoDBVvrl0OnkRbp2nw92jyC1z8QyXXSanz2AAneiAhcPQD486q0xXj0r+3tbM90o9EqcRHmTHwoABQ6gKr4z+X8XivBHb7Zrf39YmP0+9EqcRHmYHwoABQ6gIgeY3BJipNFKjujv4SbfCdITae+m+rEAUOAAKqFIT4j12tmZ/T3Y5ONBeiJ5mU6c+mcPwE13Xa3AxQPYgdsmVoG7rJ8H2yyTdwbpieRTsvf6sQBQ4AAqYtVYBe76vi5wxcCYID2RieXKC7QvZvdjAaDAAYy09n3bsQrcHX092EmrLBd6KU6ivHaqnz+AAneCAgdQszf9GmX6YF8Pd4sVFwzSM2kUyYF+MADswAGMtMFNRi0SOp4nwkz9/srZqqt+aNbQS3ES5X+n9tkDKHBX2oGLA+COECNfX2/Zufp8sPcH6bEClw35wQBQ4ABG2MkhRsZtOnZhl+tJL2VwSvqOqXv+ANx45xUKXBwAO8T6Y3cZBU56KT+eNHZeJ1EC2IEDGFnJ6pF24FYZ6PPh3h56MU6ivGKqnj+AHbjjFTiAzmuWaR7pD91R/9vnw70rSM8lL9J9/HAAKHAAI2WoTN8XYiQfHvXWPn+F8p4gPZdmma35xs8fgBvuvFyBiwCgufnAYpFO7EueZO88oKM6zr4/sZ3ee75UYmvnSsa9xXFvuHcH+41ttHclEB3cKMbGyN3GNhhipJ27EkJUIYrovffeO4guiipCvew+n+bgE9kxGF0xu3vL/3fO7/T3TTL/hzk7mrnPc427F1erYMBxeA3PM9g4IIQQN3AQQhglC1m4wBNKXs0cB/CKmMtU1wqEEHbJvIneHPco9Z/mbVAn6Ts5ran32AeobaAlbuBwgIMQwjP6+RIWLnz+mMtdvsC1zFmAxgH1p5pbFxBC6DNi6Z2cf1HOusG09chSKq8upW8jFApSYVke7chbRQu2j6bAwp7UY8y9OMC5Uggh1PwsXCSkaJrLFzgkf+wzxwF0oS0yUwsQQphgxNGgWR1o+Z5JdLqqiFRQUpFPK/dOoZS53aljxnU4wLlBCCE0tO5MgjECYTKjxS+Y4wC68AxsSv4QQigPVuPXDKCismMUTurqa2jz4cWUOu9lapd2pSX+tx8ryV2OAxyEEKrVK2LuZ+GiTUD7u44FvowBJ44SiP+23CGEMCEQR1krP6Ly6lMUaSpqSmnu1uHUc0wr3MA5TAghbBuI+TMLF/Hi0r/iipPfyIDjiA9oV50rcwgh7Dv+cTpUuIOijfx2bv2BufT2xGdwA+cMIYSwNKyfaMWn8j+hS4z2IAOOI0lc/11d8Kr/zRtCCIct6Uu19dVkNWSzlPcn/xsHOAghtLMGX83CyYsi7v9hoT3PM+BIdMHXfTVrCCGalMhni1Znz/F1NHBmexzgIITQjvp5BgsnsoEHFtnTlQFHovu5ITOGEEL5vdvq3BlkJ/ad3CgPcuQTWtjWZe/xDUdwgFMnhBB6hdaThZPW2exi2Urf5QvdjzkSoBu8k8wYQoiZbiv2TCa7cqRoNxkLesgbROVrkxi4nOT/77ySfTjAKRBCCH2G59FIzMuqcPk71cHMkYB4f8w/3b2JQAjl7dXCHVnkBPKK9545yAXiwnLIlbd9uSc34wAHIYRW73CvC37M5QudxRwJaDP8qh/rgte7t7YhhDM3p5HTOFl6kNIXvS5vz8KyZp/NSKTdx9fiAGdeCCGslC8cI3GA2+3yhV7OHAvwCb7DnXUNIRTzXyUnU1iWR8OXJodtKLjsiLn50CIKUQgHuCYIIYQ+wTewSOAVfK27rzn5EeZYgNfgo91X1xDCfhOepJq6SnIDpZWFlLNuMHXMuC48M/PGPUbLdudQMFiPAxyEEKroQKmgU998ly92UM4MY44E6MLTw131DCHsmHE9FZw+Sm7jdFURjV8zIGwHud5Z99OSXeOpLliLA9zZhBBCP38lUp36Jrl9sdsEtL8zRwISDH6fu+oZQig7TrqZ8upSmrT+C+o87MawrO8ro+6kOVsz/+eGEwc4CCGUvzsjNex4OE7LnlbMkYAkwX/jnlqGEKbOe5lA4yFq+qYAdRv+z7CsddfMm2nKhhSqqCnFAQ5CCBv0DY35baS+gRuADw55F+ZYgC74YefXMYRQ3jjJZ4Tg69TV15AcpfDyyDvCsu7th15Do5a/RyUVJ3GAgxC62bxI/rjt7eTFxCw44BOeyc6vYwjh0l3j6dwA+e2abEbSK6tVWNa/bdoVck4dnTh1EAc4CKEbnckihc/v8eEAx+cw4Fh0ofV1dg1DCN+b9FwT292D+mAdLd09QTYlCUsWcj5dyryXUJcQQpep9WeRwis8j+hY8EMMOBaviLkfNQ6hs91zfD2ZAwRD9ZS9+hMF6w8hhNBraC+wSKEb/EYsOg89n3LlLxlwJDJbmTHqHEJnOmhWBwLNQg7rVpIBhBDC2CtZpIgXl/4VC87JZ8TcyYCTG5nsQp1D6Ez3528h84BtR5apyQBCCGF1ROdK6xktfoBF5+QVnm4M2AqMy4AQfjYjkUDz+HDKC2pygBBCuDEaP25LsPCedAYci1fwzqhxCJ347ds6Mg/YkbdKUQYQQgh9Bs+MxgFuMxZfW8+AY0nwazegxiF0lh9NfZFA8/h4ahtFOUAIIfQK/iqLNF4/n4rF57VJ4o8/YsCRtM5u+T1d8CrUOYTOcfvRFWQesPfEBoU5QAghTDD4fSzS6H4+BIvfYIDfzoBj8QltBeocQmf4bs6zBJrHp9MT1GUBIYQwlJjW8ldROMBpvbD4Uk8PBhyL7vd8jhqH0BluOrSQzANyT25SnkWP0fdQ27QrUJcQQre6j0UDn9/zbyy+VBvPgGPx+flzqHH7C+Fb45+gEIXIPGDAzHZhGeNQWlkoh4JTUvrVqFEIodvMYtHAZ8TegsXn0jwGHEtCuvZH1Lj9hXDd/tlkHnCwYBv5hKY0iwEz2tJX+O9BrsPQa1GrEMJwihd8bQN//z0W/0v9cR4GnDwPbj/q3L5C2GfsQxQKBck8YNCsDhEb41BZU0bTNxrUediNqFsIoaONF9rd0fxhewohNGjwdgxgoDeE0JKu2juVzAMOF+5UfvsmRxGcj+raCpqzNZNeGnEr6hdC6ERDekaLX0Tzh+26Bglqoxhw8kDvJNS4PYWw55j7KBisJ/OAL+Z0VZ7HjryV1FTq6mto4Y4sennkHahlCKGT3B3tm4kxDRLkxxhwLD5/zOWocXsK4dJd48k8IK94L/mMWEuMcagL1tKy3TnUc0wr1LTthRB6DT462h363kYQZ0xI0TQGnAmx7+iCF6LO7SWEr42+m+qDdWQekDLvJeV5bD68mC4EmaU8kPfKsu9BDkIIfYbntSgf4LQXEcSX+j1dGXAsPuGZjDq3lxAu2D6azAPySvYpv33rN+FJZWMcZEOajQfnU78JT6HObSeE0GfE3BntH7X/QBBn9Ak+gwHH4hVaT9S5fYRQNsCora8m8wAx/1Xleaw/MJdUIw+E8iD39sRnUPN2EUIYShKX/pxFk8S0lr9CEP+1svWAP/+QAUeiB2Jutk8tQghnbxlGwDwnSw9RQiBOaRZvZD8S1jEO8iC36dBCem/Sc1avSwgh3GWVDn0FCOOM8QZ/iAFHkpx81yW64KXWr0MIYZfMf5BsRQ/Mk7awt/I8Vu+bTpFCzpgbOLO9NWsTQgj9npHMCuh+vgSBnNEr+H8YcPI8uGnWr0MI4bSNgoB58ksPK799kw1HgqF6ijTyIPfZjESL1SaEEGovWeUAZyCM/3pAdixkwInIWn/F2vUHIew87Eaqqi0nYJ6hi99Qnods/x9NDuRvpUGzOzYOJI+iEEIoP8lhVkC2wkQgjXoDsdcz4EjiU2OutXb9QQgnrfsPAfMUluVR20BLpVn0GHOvZYaoHy3aQ8aCHpRgxEWrNiGEsLrr4JjvW+UA9ygCadQntPcYcOh3cOwi637zCSHsmHEdlVeXEjBP5tK3lOexaOdYSz4THbakLyUGLo90fUIIcUZYwaxCYtplMQjla+5mwMnfwU2wZt1BCMet/oyAeUoq8qld2pVKs3hl1J1UF6y19I3jqOXvNf7vDr8QQvTKGMCsQutsdrEueBWCabRNwBPHgCPxCd7FejUHIUxKv5pKKwsJmGfk8neV5zFv2wiyA6WVBZS9+hNZP2GtTwgh9Pn5c1a7ldiEYBr1Cs8bDDiShBRNs17NQQhHr/iAgHlOVRRQUvpVSrPoPuIWqqmrIjshD3JjV/Wn9kOvCU+NQghhamwLq3Xny0AwjfoE38GAk59R7rdOvUEI26ZdQcXlJwiYRh58lecxc3M62ZXKmjKavtGgzsNuULkmEEJ4glkNr/B0QzD/o+G5hoGwg9EZEMLhS5MJmKesqlj5jVOXzJscMURd/m+YszVT3iaqWBcIIZ5PTmRWI0Hw2xDO1/X6tU8YcCQ+v/Yva9QZhFB2Eyw4fZSAaeSTQeV5TN2QSk6iuq6S5EHu5ZG3N39dIITQr/ViVqPTkJY/0QUPIqCvmScbvDDgOPSMFr/wCl4X/RqDEA5d3IeaA27fSqjD0GsVj3G4nipqSsmJyI6acih5zzH3mV4XCCH0GTF3WvW7oF0I6OvGC+1uBhyJnOUR3fqCEMqhzMdPHSBgnvFrBijPI2fdYHI69cE6kge53mMfaOq6QAhhvbzssuoBbgwC+obDGHBqI5N+0a0tCKF//qsEzCNvyTplqG3SIb+lk9/UuYVgsJ5W7JlMfcY+dL61gRDCjcyqeIXWEwH9r1qFfG7HgOOI98f8M3p1BSH0GbF0tHgPAfPkrB0UhiHqn5IbCYWCtDZ3Fr01/omzrw2EEBqeVGZVEgx+H0I669T1zgw4i8YB9kXRqSsI4RdzuhIwT2XNadkiH0PUFROiEG08OJ/eyWn9tbWBEEKfX3uRWZX4L2J/jZDO6iYGHIkutFGRrycIoU9odLBgOwHzTF4/JMxD1MG2I8vowykvNK4RhBADvK2MV/C9COqbxqfymxhwHLrwPB/5eoIQDpzZnkDzZpt1yfxHhIaogz3H15OsVZ/Q3PvvFUJ41A6NHYYhqLM+owww4DieT7nyl5EfJwAhlD+MgXmmbfRHYYg6OFS4g4bM7YaDHIQu1Gvw0czq6AZvh7DOeoAre2FwzM8YcGI3ysWRqyUIYf9pOoHmDaTuNvyfURyiDg4X7jxzkDNirfNvCkKIXhg+f8zlCOucAb7KwAWB7qsQwl3HVtO5ASUV+bT50CKasiGF5JiFz2d1oI+ntqHeWfcrzyJ90esEzHOy9BANW9KXEgJxDv/3CiGMD2hXMctD7Du64IUI7KwebZ3d8nusWQD80QJC+N6k5+ibgPzTR2j6RoP6ZD9soyHqQN5ejlr+HrVLu9KZ/2YhhKdk13K7dOabgsDOrs/v8THgxGeUueGvHwjh1iNLqREg10MeaqORhVA2RB0UlR2jEcvewUEOQqdp8Ol2aq3+EkI7pzuTk9lFDDgKn9AGhbduIIT9JjxFctbWGdDd8N2cZ6M6RD2veC+pBZyuKqKcdYOpY8b1zvh3CyHsbaMDXOyVCOzceg3tcQYchVfE3B/euoEQbjg4n9xObX01Za/+RD5fjGoWshEHCB9lVSXyINc4cN2WQggTBL+NNWKL7+BOILhzaPBlDDiKroNjvq8Lfjo8NQMh7DvuMdffvh0v2U99xj5kiSHqsi0+CD8VNaU0Zf0Q6pJ5E/YB+wlhtfx9aLdvgrIQ3Lfo97RiwGnfwU0IT71ACFfnziA3k3tyM3XNvNkSWQya1YFA5EdAzNmaSS+NuA37gV2E0M+XMBtgbh4cXCdvKhlwDLJBjfo6gRC+PvZBCoWC5Fa2HF5CSelXWyaPfSc3UnQAdfU1tHBHFr0y6k7sDRBaXK+ff8Dshp4a2wLhnU+tNQOOoW3g77/XBQ+qrREI4bLdOeRWDhZsp/ZDr7FUHqNXfEDRBdQFa2nRzrHUY8y92CMgtKjxBn/Irk/KtiPAb3V3cvJdlzDgpGeUq9TVB4RQ/kANBuvJjRSXn6CXR95uyVwW7hhD0QfIm+k1uTMVfBupUgihV/C6hHTtpzZtre75GCGeR4O3Y8Ax6ELrq64+IITylsGlP8wVzndTr5xXdrhwJwHr1MvGg/MpecJTFqgPCKFPaCuYXfEZMXcixPOe0I+0HvDnHzLgCOJTY65VUxsQQvmdj3wq5kbmbRtp+Xz6ZD9M9cE6AtZBdmrdcGAevT3xmejWB4TwQ2ZX5PNAXfBihHg+Pe8w+wMaR2gcvfCagBDO3Tqc3EhJRT51yrDH/K+Zm9MJWJOtR5bS+5P/HYW6gBDK+cB2/yZoDII8r9XxRixnwBF4hScFNQ3hhdlt+C1UU1dFbmTo4jdsk1OHoddSaWUhAeuy5/g6GjizfeTqAkJY22b4VT+2eWt17UUE2QQNPp0BRyBn/KGmIbzQm500ciHyMCS/L7NVVjnrBhOwPnL8gzzI+YQW3pqAEC5ndueFwTE/0wWvQpjn12tojzNge5LE9d/F02EIm2+XzJuoqrac3MiEtZ/b8Lb0n1RbX03AHhwp2k3Ggh6UYMSFpyYgRAOT95gT8Pr5VATaFLVDSeKPP2LA9ngFH4F6hrB5Tlk/hNyIHJfQNfNmW2a2au9UAvYir3jvmYNcQOVBDkKYYPD7nHKAi0egTdTgHzEngGeUT5vPH0LYMeN6qqw5TW5k74kNts1NHgSAPTlZepDSF71OiYHLL7wWIIQ1jrmM0TNa/EI26kCoTTLoTdVuZcDWyH+8utAqzGUPIZy49nNyKzlrB9k2t+4jbiHZwh7Yl8KyPBq1/D1KSr+quXUAIfTzJQ4bcMynIdgmu7Ph0PsDBmyNbvBJTc8cQtg+/Wo6XVVEbuXdnGdtnd/R4j0EnNFIRzam6ZhxHfYlCN0+GswnuNf5oWEAIGhENzx60/OGEGat/NjVA5iT0q+2TBb4Dg7IP6aMXvGBia6oEEJfQLuHOQn5jBLdKJuuV/A63eA3MmBb4r+I/bXM8fx5Qwjls61TFQXkUuT/dttnOGn9FwScR3H5cfmN3PnHD0AIKx35gk4XPAvhmjrE7U1I137KgJ1vnhecP2sIofz2xrqggQkamYADBdsoeeLT58ofQmjwOcyJxBv8IQRs2mEM2LkbZddvzxdC2DbQkorKjpGbWbd/tu1z7D/NS8DZ1AfraOqG1LN0rIQQeoXWkzmR1tnsYl3wYwjZpAZvw4AtiU/lf9IFD507XwjhsCV9ye2sOzDH9jm+PfEZcgfgQP5W6pXV6iv5QwjjU2OuZU5FF1p/hGza07o/zsOAXYd6rz17rhBCOUQ4v/QwuZ1NhxbYPsveWfeTewBVteUUWNjzTP4QwvzkZHYRcypeI6YlQm6O2nqMFrDtt599zp4phFD+ACQCW48sdUQjmnnbRlJ1XSW5BzBzcxr5jFjsZ24XZrnhB+06BN2spiYjGLAdbQKeuG/mCSGUP/rOzA4Dhwt3OiZXOT9MNqWRg6GBe77hdPMAcAi9fi3RDY0dOiDs5imbYjA7glu4XV/PEkKYMrc7nQHU1ldTghHnqHxlowt5w5pXvJeA89lzfD11ybwJe5srhYlpcX9jTqfTkJY/0QU/hcCbOR8uNfYuBmyFHMzemCOEUM6UOly0i0AjsimEU7MeOLM9yVEJwNkcKdrtxkMchLtdNB9LG4TAm+0J25300Y3ypsb8IISDZnekrwO+mNvV8bl/NPVFkt/7AWfPi+uYcT32OfcI/XwIcwuyqyLaq1+Q2/WMFr9gwB4Q+44u+MEz2UEI9+dvoa8Dlu2e6Jr8+457jJbtzqFgsJ6A89h2ZJnsMOuKWoYw3uBPua29+lwE33zl+iWJ67/LgF3qfQDqlhOEn05PIPBNyqtLXTcgueeYVrRo51iqC9YScBbzto1wQw1DWO+6CxVd8CcR/IXqSWfAFviM2FtQr5wg3HN8HYGzIw+3bqyJV0fdRXO2ZpJs5gKcw5C53ZxduxD6+UrmNlpns4t1oR264MWDyQzY4hmlV/AjqFc3C+U3UODcrDswx9X18cqoO511kMOtsszUaXUKIX6De4XWE+Er0NC6M2CHERqfo17dLNx+dDmBcxOiEPUd/7hcK9cf5BZsH42nlQ5gw4F5zq1VCAMxNzM38sLgmJ/pgpdc8ALCkPWHCIIEwW9DrbpV+E5Oazo/YG3uLNTLV55WLtyRRcFQPQH78tmMRNQzdKJF8jUhcyteP/9AzUJiRpzX8DzDgGVJTmYX6YLnoV7dKNx0aCGdHxAKBem9Sc99Ze1gn+yHST4vlTeUwH7ImY8+oaGWodMcw9xMm9TLfqcLXqlkMWG9z+/5NwOWRTf4YNSp24RvjX8CP75NkF96mDoMvfZ/1hG+PfEZ2nhwPgHcwkVbCL1+Hs/QYt2TomxRYa3u9zzNgCXx+j13oEbdJly7fxaZAyzcMeYc6wn7T/PSwYLtBOyD/P4VtQsdZEgf0vIP+DYohV8qb48ULiwOccLzPLMqeEZ5HDXqFuEb2Y+QfBZoDiAbeHTMuO4c6wp9RiylLXqdSipOErDH0+CXRtyG2oWO0Cf4BnYG4DX4aKULDENewV9lwHLofj4E9ekW4cq9U8g8YPHO7CasL0xKv5qyV39CVbXlBKzNiGVvo2ahU3yfnQHEB7Sr5KFD7QJDn9DeY8BSxAvtbtSmG4S9slqZ7yAI5JrJtTOx1lDe7qBjpbXZcngJahU6wwC/nYFGfH4+NgwLDf08Izn5rkuYlcAzymOoTeh0l+4aT+YBy3bnWCrHBCOOumTeZIuaS574NO3P30LAepRVlWBfhE6wNElc/10GGok3Yrlsh69+saHPzye2GX7VjxmwBLrhSUVdQqfP8KoP1pF5cPvWe+wDlrrZkg0oauuradHOsbKlvy2+jxu+NJkqakoJWIuXR96B/RHaXG08A9/EK3ggbIsONyamxf2NASvMP7wX9Qid7ILto8k8YNW+aZbJMHXey1RefYq+ihwHIZ/CfTo9wfKzvbqPuIVW4BtMSzFwZnvsj9DuDUzaMvBNfEMu+4sueFXYFh+ejP7bXSCftOqC56MeoVO/R5I3NuYA8nD05rhHo56fHCS+69gaOh/HTx2gUcvfo6T0qyxdjx9OeZHyivdS9AGjV3yAPRLa2VB8Kv8TA2dHF56B4Q4Bs+L4K4zYd1jUAD7BBWoROtHZWzLIPGDd/tlR/c5twIy2JG/XzFJaWUg56wZTl8x/WLYm26ZdQRPXfh7lPyyAKeuHYI+ENlZbz8C5SRL8N7rgp8MeBMzGd3F4RqlSCOWP+OraCjIPbt/6TXgywjelt9IXc7qS7N5YXH6CLpTqukp5eLf0vK+eY1rRrmOrKTqA+dtHYZ+EdjaZgfPewr2DQsF3cU6mdTa72GlDvSGctlGQecCmQwuUZ9FvwlO0cMcYmr7R+K+yM+jmw4upqOwYhYu6+hqS/7k9xtxryRqVt42T1n8RhZEDYNXeqdgnoW2NT+U3MfDtJKRrP9UFz4tIKDBf9/OHGYg4usEHo/6gU+w87AaqrCkj84B3clorz0M+h4wmwWA9Ld8zybKdKz+Z7muo19MEIodsKoO9EtrU43IMFGsS+HHbJmLBwJD8JitJ/PFHDEQMb6p2K2oPOkX5HZR5wNYjS8Ny+xaikGWeh248OJ/eyfmX5Wr2jexHqLAsj0BkkM91sVdCW2rwNAaaCLHv6IIvj2hAcEtiatwVLJKgxg+i7qDd7ZhxXWPLeVOADyY/rzyPDQfnW/ap6Fvjn7BU7crZZEeL9hAIP3O2ZmK/hLY03uBPMdB0fCLmOl3wYESDgtW60Pq2zm75PQbCji60/qg5aHfHrf6UzAN25q1WnkXf8Y/LWy9LN2xZkzuTemfdb5n67Zp5Mx0v2U8gvMhbeuyX0IZWy0+7mDmA7udG5MOCXuHZqgdibmYgEn+kIAjtalL61SRbyZsHfDw1Xnkea/fPIjsQCgXlQc4yzU5eGXUnnlOGGWNBD+yZ0H76PbOYeUBiWstf6YIXRi88fBuHvzyEfSbcDtQatKtyOK95wL6TG5VnIRuGyIORnagL1pL8Nqr7iFss8U0cngKHj/cn/xt7JrTjAa4rA81DLl40w4PaIZ9f+xcDGJsB4f8MSC6pOEnmAZ/NSFSex6p908iuyDlyctRBp4wbolrTH09tE6YRA6Db8Fuwb0LbmZDCL2WgeSQn33WJnFkW3RChV/ClusFvZEoBPn/M5agvaEczl/Yj84AD+VuVZ9F77AOOOHjIG7BRy9+jxMDlUavrCWsGklqAfJ6KPRPa0O0MXBgJfn61Lnht1MOEoQaz9dTYFkwZQBd8M2oL2kn5A7vg9FEyDxg0q4PyPJbtziEnceLUQRoyt1tUattnxNKuY6tJHUDeDmPfhHbT6+cfMHDh+IT2nlVChVqFz8/fbjP8qh8zcMH4DP66nfKHMG3R62QecLR4jzwgKM1CNgKRg7OdyI68lbKzZsTru8foe6i6toLUAEYufxf7JrSfapr5ga6DY76vC77NUuHCPJ/QOspsGGg28o21vN20Q+YQJhhxJG9IzAPCcau0eGc2OZlQKChvGCPe6GTC2s9JDaBXVivsndBuHktOZhcxNYD4VH6TLni95YLG93FHfIJ30TNa/ICBZqEbfLUdsobQP/9VMg/IK9mn/PZNtr+XnRzdgGx0ImeJtUu7MkIjMq5SMFoAnCw9iH0T2k7ZhZ0BFw0/hid1v9YrSfzxRwyYnXn4itXzhdAnNDpatIfMA8T8V5XnMX/7KHIb+aWHaeDMpIjUezqeCl8w0zb6sXdC2xlv8IcYCMtTyu2WDh/mN5j8wuCYnzHQJBLStT/qggetnCuEX8zpSqB5TTkSjDilWbw04jaqra8mt7I2dxZ1HhbesQNtAy2puPw4gebzxrhHsHdCu70qK8OLsjCRIPht+LFrC096hdazyQc5dKNcbOU8IW7fDhZsI/MA2fRFdR6ztwwjIrSnfzfn2bDWfdbKjwg0jwMF27B3QtvpNTzjWFjBj933UWi28bR8T5yQomkMnBPZEMaqGUIon62B5h0y5E2OyizkUOSaukoiAnX1NfK7zLDVfZfMm5r5nSGQM/2wd0K76TW0FxgI74BvOVwaxWYr63Whjfemarcy8A18Q2N+6xW8zorZQbj3xAYyD8hc+pbyLKZvChBoJEQhGrHs7bDV/oaD88kcQP6BQR5+sXdCm1n7fMqVv2QgvLQNxPxZF7wQBWfLDj87dEPr3mlIy58w8F90v2eW1bKCsP80ncwD5PdTbdOuUH0jdI4ZZTjEDVui/rAsTZ3/CpkDzNs2EnsntKPzGIgMXuF5xAEztPC80s+vZoD5/B6f1TKCcGfeagLWGGA8ZUMKgXPPjBs4s30YnlH+g+T/b9D0HHqOseHsNwj9nq4souDboUEoPEe4XDd4uyRx6c+ZS9EzWvxCF7zaKplA+P7kf5N5QGllgZwlpjSLjhnXU0VNKYFzU1VbTn2yH1b+7+BgwXYCTWP9gbnYO6EdDcWLS//KQKRHC2jrUXyOsarBbN0f85j81tGFQ70nWSULCLceWUrmAVkrP1aeRc7aQQSa1v1Q9diGWZuHEmga70/+P+yd0H76+UoGIo/uj/PI53goQqepHTrTcTT2Shcd4P4PuUMrmDzxaTIPKKsqofZDr1Gahfz/V1ZVTKBpjF7xvtL1/8/sznR+QO7JTdg7oS31GZ7XWHQAXkN7Ft/DOdptutD6ysM6czBthl/1Y13wcuQdbeGGA/PIPGD8mgHKsxi3+lMCTUc2elF5iO42/J+yUQqBbydlbnfsndCOhtoEtL8zENVD3LuuKDa4Tv61JDEt7m8OnXOYhYxhNO077jH8YG0G5dWl1DHjOrW3b+lX0+mqIgLmGDCzndIcistP0LkB+aePND5dhdBGegVfy0CUIfYdn5+PdVXxwe0NJjvpZi7e4E8hVxhNV+fOIGCenHWDlWeRtfIjAtG/Cd1+dAU5DwzuhtArtJ4MWOYJ2kbXFSEMyb+i6IL38wZir5eHeXs35uElyBRGw9fHPoi26c2gsqaMOg+7QWkWspPlqYoCAuZZvHOc0izkbLOzA2R31A5Dr8X+CW2pV8RcxoA1kK1AdcFPuLooYZ7u54YutNZJgv/GfjMOeQAZwmi4bHcOAfNM3ZCqPAs5Sw40j+V7JinNYsKagXR2wPSNBvZOaEt9gm9gwFr4jNhbvjJTC8JcOTRcHuieT7nyl9b/I4R2NzKLtLDHmHspGKwnYI7qukrqmnmz0izaBlpSYVkegeaxau9UpXkMW9KXvgmoD9bRyyPvwP4JbanP4K8zYD10w6OfJTAI6xtc1eCHut/TKkn88UfMYiQns4t0wQ8jq0gKF+7IImCemZvTlWcxbMlbBJrPmtyZSvMYMrcbARM3nRDawHgjljNgTXyCf3qeACGsaXCVT2iDdOF53irvoX3C8zGyiZRQ/hW9LlhLwBy19dX00ojblGaRGLhcdvUj0HwWbB8d5llwQHaqfWPcI9g/oV3dxJQC1N9kGHySyVAhPOUVfO6ZDpcxj8V/EftrFmES/Pxq5BAp4dytwwmYR66b6izSF71OFwaYsPZzpZkMnNmewNeRsyKxd0K76hWeNxiwNp2GtPyJPGlfQNAQBhvcrvs9I72Cv+r183sT01r+KvzNTDxbsfbhFnYfcQvV1FURMP/9z6uj7lKahZyldfzUAbowQGBhL6W5+Oe/SuDrvJPTGvsntLOxzDagM+VxteFDqB3yCc9kn5+/Lee3qZ7mrwveG2scbuGMTQEC5lm4Y4zyLMSC1+jCAe9P/jc6goaRHXkrsXdCO9++bWXAPiT4tRu8gpeFuTAgPK0bfLUuPOk+w/Oa7tceTEyL+9sF/OEhiDUNl7BL5k1UXVtBwPztW4/R9yjuiBZLR4v20IUB5BxD1XPJJq8fQqCR/tN07J/QzvZjwHbjBR7QBa+NWtFAHOz8PEO2rvUanmfiA9pVekaLH5znFm4x1i5cwin4Ydoslu4arzyLlHkv0YUDjpXkKs9GNkU5A8g9uRl7J7S1XiOmJQP2w+fXXtQFD6GIoYW+rzugG3yOV3hSztzaeZ7WDc81CenaT72CJ2GNwiHsmHE9VdSUEjBHMFRPvbJaKR4oq9GRot104YAVeyYr/7ey7sAcOgMYPLsT9k9o5+HdOxiwL7IRhU2KDcJSrEE4hBPWDCRgnhV7p8j1Q5t6i5K26HXl+ZwZ6wDyivfKp77YP6FtlT0LGLA38qbDjcULIYTt06+m01VFBEx/XxWW2VcH8reSEoDyzqCdh90gZ54RIDIW9MD+CW1tYmrcFQzYH6/QerqteCGEcOyq/gTMsyZ3pvIsBs5MImDd798+ntqGAMlbSEoIxGH/hHZ2N3MOQA5rdkvxQghhu7QrqaTiJAFzyFuYvuMfV57HvpMbSQ1g+kYjTH/sAJlL+2H/hLbWa2jvMmcB5JtYNxQvhBCOWPYOAfNsODBPeRafTPcRsPZwaTnzzO2cqiiQf/jB/gltrWwOx5wH0IXnHScXLoQQJgYup8KyPALmeXviM8rz2HVsDakBFJw+Sj6hKe/UKmf+uZ3sVf2xf0K7u5M5FyCvV51avBBCmLH4TQLm2XJ4ifIsPpzyIqkDTFr/BWbzhYHKmtPyIIv9E9pan9/zJnM2QE5od1rhQgihbEBwsvQQAfO8N+k55XlsP7qCgLrvE3uOaaU8o7X7Z5HbkcP+sX9CmxvyipjLmPMBuuHRdcFrnVK8EEIYWNiTgHnkQUt1Fu/mPEvqAHuOr1eeUZfMf1BdfQ25mZq6SuqaeTP2T2hrfUJbwYB78IqY+3XBT9u9cCGEUA7fPVq8h4B55FNH1XnIJ5nqAPJpMLpPqmf2lgzsn9D2+gTvwoC70A1+oy74STsXLoQQpsztTsA8e09sUJ5FvwlPKRwMDWrrq6lTxg3Km/3IuWduRjZvaRyKDqE99Qpe1zbw998z4D4SUviluvDssWnxQgjxfIQOFmwjYB7Z5l91HhsOzid1gFX7pinPKH3R6+R2Fu/Mxv7pBOFMBtyLPqTlH3TB19mtcCGEcNDsjgTMk3tys+os5CBwxbdvoP80XW2zHyOOTpw6SG4mGKqn3ln3Y/+E9tfgbRhwNwnp2k91oU2xU+FCCOH+/C0EzDNwZnv1XQ1zZ5E6QF7JPuWz31LnvUyN4FYTQvuqVcjf7gwARuw7ul/rpQsetHrhQgjhp9MTCJjnUOEO5QeDPmMfolAoSOoAw5cmq/43I29eXT+S4c1xj2L/dIIwi30VALzC84gueImVCxdCCHcfX0vAPP+Z00V5Fqv2TiV1gKracuqYcR3GOyhm3f7Z2DsdIfQa2uPsfwFA98d5dMG3WbFoIYTwo6kvEjBPXvFeOXZBaRZyyHQwWE/qAHO2ZuKQHQaSJz6N/dMJwuKug2O+z84GAJ2GtPyJLrTxVitcCCHcfnQ5AfPIb6BUZ7Fs90QCap/59R77gNKMXhpxK9UFa8nNbDq0EHunQ4SanwFgp+/iIITwnZzWBMxzsvSg7EKoNAs5S0vO1FIH2Hx4sfJ/M1PWDyG38/7k/8P+6Qih1++5gzUFABIMfp8ueF60ixZCCDcdWkDAPIGFPZVnsWjnWFILGDCjrdKM2qZdQaWVBeRmth1Zhr3TKcLDycnsItZUANAzWvxCF3xMtIoWQgjfGv8EZo01g/zSw5QQUHv79sqoOxU/ywPHS/Yr/0YxbWFvcjsfTnkB+6cjhD7h+ZgB0By8fh6vC14e6aKFEMK1+2cRMM/QxW8oz2LetpEEVOfUR3lOB/K3kpvZdWw19k7HCBP8/GoGQHPRBY/VhbZefXFCCKHKWWOgqOwYtQ20VJpF9xG3UE1dFakDyGeO7dKuVJrTB5OfJ7fTf5qO/dMRQp/gO9iFAkBy8l2X6IIno8FJJIQQrtw7hcD5kU1Fjp86QDvyVsobSxoyt5vyLGZvySC1gPFrBijPaU3uTHIzuSc3Ye90krAPUwUAvoB2jy54rokChBBC87PGQvX0TUBdfQ1tPrSIRix7m/pNeNL8t24m7Tb8n1RTV0nqANW1FdR52A2qv1F0/Xy+ATPbYf90ijCYmBb3N6YSAFoP+PMPdYN/pAter7poIYRwya7xBL7O4aJdlLm0H3XMuD6iWUzfaBCw/uDuaRsFuZmDBdvJJzTsn04RzmPhAgD5caVX8LX4hwYhRLfD8HCkaDcNmt0xKj9Ou2TeRFW15aQOIG/J5Dw9lTklpV9FZVUl5GYGz+6E/dM5QoO3YQCE/ds4Q+uuolMlhBDO3z6KAMmDE41e8b6ZJ5I2GAgNVu2dqjwn2XXUzRwt3tM4jgFCm+sVvKzTkJY/YZEAgIQUfqlX8Ln4xwchRLfDC30Oto16ZbWKahbyqWZFTSmpBfSb8JTyrOTzWjeTMrc79k/nCA2exiIKAMS+oxseXRf8eIMEIYTodmj+hqZt2hVRz2Li2s9JLWD70eXKc+o/zUtu5lhJrrNu3yAM8NsZANEgIV376ZdNTqqbUqwQQth52I1U7fJuhzM3p1uiEUP7oddQefUpUgv4dHqC8qw2HVpIbsZY0AP7p5OE++RlCAMgmviGXPYXXfDh5ytYCCHMXv0JuZnZW4ZZJgt5o7E6dwapBV1EVR/Oe499wNXD7vNLDzd+I+oIIdT6MgCsQoLB7/MKz9azFSuEECYYcVRYlkcuRQ7gtlwLdPmMc/fxtQSse1O0YPtocjGyeQv2z3ALMfsNoFulV/DODRZ8tWAhhPCT6T5yK0eL9lBS+tWWzOWlEbdRaWUhXRigqOwYJQYuV/3k2NUD1uUffNoGWmL/dI7Qz+czAKyKbI2q+7VeuuAlDRKEEK7cO4XcSF19DfUd/7ilsxk4M4kuDJC18iPluYxb/Rm5GDnUHntnpIWY/QZA/Bexv9aF1r/BCvzDhdC1yiHErm1eMnn9EFtktDZ3FoHmUVlTJkcyKM1D3uYVlx8nt1JScZLapV2J/dNJwtNthl/1YwaAXfANjfntlx0rqxokCKG7/HxWB9c+AWt8OmltXx11l7wtJGCe6ZsCyvMQC14jNyMH3GPvhBYQs98AiBeX/tUnuPAKXod/zBC6x0U7x+IJmA003zAD1Afr6OWRdyjPYn/+FnIrZVXFcswF9k5oJTH7DYDEtMti5EHOHTPkIITF5SfIbZRWFtjuCViPMfeabFkPlu6eoDyHD6e8QG4me1V/7JuOEnoF3+uY2W8AtEm97He64MloduJcIew55j48q7OR244so6YB5GH3jexHlGew4cA8cityuHyHoddi73SU0Of3vMmcBgAvDI75mW5o3XXBjzVIzhFCKGdjuZHGH/b2MrCwF4Emz/YLyx883HwLOmHt59g3nSYMtQlof2dOBYAk8ccf6X5PV13wAw0ShNCO4ruqgtNHbZtXl8ybKBiqJ3B+kic+rXz9524d7uJunqepU8YN2DedJTT4HAaAG2idzS6ON/hTcuAh/vFDaG8P5G8lt7FwR5atMztYsI3At7P1yFLl6y4PL9W1FeRWpjSO3HCMEHoN7VkGgNuIN2K5T2iDdMHLsRFAaD8rakrJbQxd3Mfht6bgwykvYnC3QuScyC6Z/8Ce6TTRvKSg6+CY7zMA3PydnFfwJF3wndgUILSHcrixG0me8JStc8tc+hadG7D3xAbla9427QoqqcjHLD1HCaHWnwEAGEtOZhf5DM+jusEn6YLXYnOA0Lr2m/AkuZHOw260dW4DZrSlcwMGzmyvfM2HLelLbqWmrpK6Db8Fe6bThKGEFE1jAICvow9p+QddeHrgVg5CazpodkdyG3X1NeQTmq1z6zvuMTo74HDRLuX5+oxYOl6yn9zK7C3DsF86UKgtYgCAb8cbiL3+y+Hgp7FpQIgRAlGcY+WA2X2t6OyA1PmvKF/v/8zpQm5F/sHj5ZG3Y790omhe8gJrGgCAhHTtp16/lqgbnoW64EFsIhBGz2FL3iK3UVpZYPvcXh11F30TcLL0ICUYccrXW35T51JkwxzslU4UFukZLX7AAADmiU/lf9LlgHCDL5NvkbGhRFYIZTdGtyHbwNs9t9fHPkjfBGQsflP5Wn845QVyK/XBOnpt9N3YK50n9Hs+ZwAANeMIdMH7Re57OQihf/6r5DZCFKLEwOW2zu2dnNYEvk5x+QnZKVL5Wm86tIDcyuKd47BPOlKYmBp3BVMLAMAnYq7TBf+wwV3YaMInhP2necmN9Bhzr61zS5nbncDXGbPyQ+Xr3GfsQxQKBcmNBIP11HPMfdgnHSf0CW0FCy8AgIQUfml4nllCCHtn3U9uRLbht3Nu41Z/SqCRsqoSaj/0GuXrvHT3BHIry/dMwh7pSKHP7/GxyAEA8A257C9yWLjXz6de+Iw5CGFCII6q6yrJbUxc+7mtc1u3fzaBRnLWDVa+xrLzYl2wltyIvHV8I/sR7JFOFJ5qM/yqHzMAQHToNKTlT3R/zGNyNIFX8CPYlCBsnruPryW3sfXIUltnVlJxks4AqmrLwzKYfebmdHIrq/dNx97oSKFXeFIYAMAiEPvOl9/N9fEKvlQXvB4bVdOEcNpGQW6jtr668cmdzXxr/BMEGpm5OU35GssDoTwYStzY5OfNcY9ib3SkUP5WZAAAa/J8ypW/1IXWukG/Ljx7sGmdWwg/m5FIbiRl3ku2zGvy+iEEGg/i3UfconyNp7h4jdcfmIt90anCVQwAYB/aBmL+7PXzeF3wYQ0exiYGYaPyJqquvobcxrYjy2yXlRxSXXD6KJ0BzNs2Qvkad8y4nipqSl17+5Y84Snsi44Uyt+BDABgXxLTLovRDd5OF3x4g7nY2KDbXZs7y5U/VuVAbDvlNHh2JwKNQ6ZfHXWX8jWetO4/5FY2H1qE/dCRQq/gBXpGix8w5wAASEjX/iifXPqENkgXfJ1X8DpseNBNDpyZRG5kxZ7JdppdRLknN1P4wJBpeftWXl1KbuW9Sc9hP3SoUOvPnA8A6HDp9fN7fQZ/3efnE9Hl0ulC+TTvWEkuuY1gqJ76jnvMFhkNmduNQGNuvbJaKV/jnLWDyK1sP7oce6FThUE5U5gBANx5S+c1tMcbfFf3e2bpghdiU3SSUCx4jdyIvNXyGbGWzqZjxnVUVHaMzgBW7p0SljV28+3bh1NexD7oTKHBp7OvAgDAYHGf4XnU5/e86TU843TB9zUYwoYJ7XoLd6hwB7mR0Ss+sHQ2C3eMcfW3bidLD9Ge4+vlLRGtOzCH+mQ/rHyNJ6z9nFyKnAWJPdCxQvk7jQEAwHlu6n7qTdVulU1SfIJ/2uCMLxulBLGRQqsrv4EJhYLkNuqCtfT2xGcsmYmxoAe5ieraClq3fzZlLn2L+o5/nNoGWkbkhrO8+hS5lU+m+7D/OVW4PzmZXcQAAKA5yO5HCX5+tdfQnvUa/C1d8DE+wTfoQqvABgut5JytmeRGSipO0iuj7rTcgbqmrso1t0Cp81+hpPSrI77O49cMILeSe3IT9j3nCv1aL6YcAAAg9h09NbaFz4h9QBfaS7rBB+tCm6ILvrnBU9iAIy1sl3YlHS7cSW4kr3gvdRt+iyVy6DfhKVfMI9uRt5LeyWkdtXXuMPRaKqsqIZciO9Bi33OqsNo3NOa3DAAAonBz94v4gHaV7o95TPd7uspnmV9+b7emwRMNkmoh7J11v2uflOWV7KOXR94RzfWXDSUcv/7F5Sdo0KwOUa/1cas/JbdyoGCbHE+BPc+pwuEMAACsSOsBf/6hbI/rM2Jv8fm1J3S/p4MueL8Gv5AjEHSDL9OFZ49X8DJs5tCMH0+Nlw0kXPqcMj9qt0JDF/eR3+SRk1mdO4M6ZdwQ9RpvP/QaKqsqJrcyaHZH7HXOFQZibmYAAGB3ksQffxQvLv2rvNHTA/x2Xd7qGbyNvNnThdZXN/hnuvCk64JnNzizwXkNrmtwS4O5X974FUvdcSCE/5nTxa2HOHmIkrczsjtnRNa687AbaPW+6eRkZIOc0Svet0x9Z6/qTy5Fdpx17u0bhAZfzUDU+P/s3QV4G0ebwPH5mJmZ7FG4zMzMTNEqXEgKuTJcuExB7dphpjpJk3MYHU7DzIUwOkbFkt67OSq3Zu/O/n/P8//ogYJm9X7b1c4ACAjHjQxlaNiZeUemLJmQsNq+f7XZTKRGj2/oP+c5OVZyyPYbYnMYuW/Wdeu+J0h+8UEJqx5THrT4e4so824F4KsBjqdPY2DwJM5WaUnL8h3Tpev4O6t1s5i+s5+WvUd3iu1S6aT0nNrWV2t6yPzOElYfHNrI0zeyud23jWr4XfX1AABRV8+zdyBQt/F3i3liEXZmh86Ri16RJ4ZfVuG/hy2yG8krE6Myc90wKSzNl7AYMPcF363n9kMvlPziAxJGPae15TvN2sgc1aQAAOXjxDNvtnsw0OPDL5GPDm+W/4FDBbtl0daJMnbpW2LOMDM3Zx3G3iQmczD4m7mtxfw8cvKqfma7fHNItYTN7A0jfbueu46/S1KpZOiOyoh59Wz9jiIqdXo1/L0qHwDAbaPUtxxXb7d7OND9/U8u12YbwO4j26RV3ya+Xs8T3uslYdJn+qN8jxFHBwAAPmYOIw/FkCCzIcWX/gwQSEv6481ffFyLrIbmRjMsZxza/fSNyNOnKQBAxdzTPeOnjqvzwzEsyLxHtGzHVAE+a8Hm8YHaaTUM4jPa2/t9ROTpPFU5AICYm/lyuAYHvfEfLeTDQ5vEAMx7ZY8PuzhQa3jL3uVisz1Htn98pqGFEcXikVtV5QAAWmT943eOq0vCNTwo5kbMph2ybd8qQbgt2DIhcOvXnItmM2/m43xPkc1tN+/hq8oDADhx7YV3kNArEx3zREPCCWZ3x6CtWfNu2OHCvWKjffnvS7Msnr6RxcUz2yoAQNVE3Yx/Oa5OhnuokDn4esXOGRIe2H/sw8AeEj1ldX+xUfasp/g+Ips7/ECvhj9WAICqi3qZoxks9MkbubSkBXabumZgYNfpy+/eJ7bZn/8BT9/I6qJx3U1VDwCA42We6Lg6/V8JkemFMTfIkm253MhZzOzoGNT12TK7sSTKSsQm/eY8w3cP2dzxFlkZf1bVBwDguHo6A+az0XOjr5W8TTmSSicFdnlo4OmBXptb960QWxws2GXOueM7h+wtrvur6gUAaObpSxky9GU9O+oaWbhlAjdyljhStC/wa3L2hpFiiwFzn+d7hmwu7bj1GqvqBwCIunoeg4a+KnNmmHl3qiyZEATXpj1LA78WRy9+TWxwqGA3T9/I7jw9SdUMAEBTT1/FsKHy1H7oheZGTo4nSwXBs3Tb5MCvwezZT4sNBs77d75TyO761LtQ1RwAgOPpxQwcKm/tBp0tk1Z4kigrFgTH3I1jAr/2ek5rK0F3uHCPtMhuxHcJ2dwSVbMAAE484zoGDlW0tgPPlJxl3aU4cUz8D/O4gfOFwXmd+P4gq4vFI7cqALUCvAu3lMFDlcnsbGhu5IoS+eJfMBvSBH2txWe0D/hGMvulVd8mfG+QzW27bZT6lgJQK8C7cDcxeKoStel3koxa/KoUlh4V+M+6j+YHfo0Nnd9Fgsz8+fNdQVYXz2yjAAC1RNQ3HFevZABVNWrd70Qx/0fVPG2Af+w6sjXwa8u8exlUR4sOSKu+J9h87RPtu+2NP/9AAQBqj/ndOgOIqiuzUYM56+pw4V5B3UulktIyu3Gg19SKnTMkqIYt6Gb19U4UdTOfVQCA2tWhg/pm1M1cwyCi6szcNAzO6ygHC3YJ6laHsTcFei0FdQ3lF/P0jewu6uqC5tkNf6kAALUv6kVuZxhRTWQOLu4351nZn/+BoG6MWPhyoA+UD6qRi16x/PomiryiAAB19y5czNXLGUZUU8W8etJrWjsx72SVF9jIxPwcN4gKSo6Y90K59snmSu516/9BAQDqTszLvJaBVBtxI/dmbmvZcWCt1B7eg3t48NmBXC/rdy2SIDI7s3K9k83F3MjbCgBQ9xxXz2cw1VIMfzE3ctv2rZLawM8oXwrcGmk/9EJJpZOBfPpmjtfgOieLO97U/edfFQCg7jlZ+jwGE9V2XcffWcNPWnCoYLc0z2oQqHUxeVU/CaIxS97guibLi8QVAMA/oq6exnCqo7iRq8Et45E164nArIWHBp4hxYkCCZqiRL480P9UrmeyueP3ZUX+oQAA/tEsHjnVcXWaIVXXcSOXlrRUHxwu3COtA7Kt/fS1gyWI3ln6Ftcw2V1c91cAAP9xPD2OQVXX0QtjbpAl23K5katGE97rFYjPPZkqk6ApThzj6RvZXrJZ70hEAQD8p3mf+o0cV6cYVuSHnht9reRtyqmmDS3YkbJTzq2+Pjfwg4MbJIjGLevB9UpWF/X0MAUA8C8nnjmEgUV+6tlR18jCLRO4kauiffnvy0MDT/flZzxz3TAJIvP07cEBPH0jq0tFvYyGCgDgX82z/5VhXlZmaJHfenzYxTJ1zUApSyYElWN2/fTbrpQD573AT1OJfFrU1YMVAMD/nLj2GFzk53PCzI3c8WSpoOKW7Zjqm5u4ntPaBvbJaunxIrNrJtck8e4bAKDuNe2j/+S4upDhRX7u0SHny7Q1gyRRViKomPd2TJNWdbwzZb85z4h5Ny+oJq6Icx2S3Xk6WwUHACAW1x0ZYEGI2g48U3KWdRfzPlL5Yfv+1fLokPNq/fNqllVfJq3wJMhKy4rNuuP6I5tLBOzcNwDAA70a/thx9W6GWFAis0GHuZEzhyqXDwpKjkiPqQ/V6nuMW/Yul6AzN6Bcc5bHu289VPAAAKLxSHMGWdCiNv1OklGLX5XC0qNSPli2fYo8MfzSGvtMWvVtIjlL35ZEWbEEnXn61m7QWVxrZHMl5lUKFTwAgA4d1DcdN/IewyyIUet+J8rQ+V3kSNF+wdczu3vOWj9cnhpxebXeTI9Y+JJVn0HuqmyrrxuiaDzyqgouAEAsK3JxkAcRUYvsRjJg7vNyuHCv4Oul0ylZ99EC6Tv76Uq952Wetr2R21LMIezmaZVNzM6njww+1+brhfjpZMF9ff71WxVsAADH05OCPpSIWmY3lsF5HeVgwS4pH6QlLR8d2iyz1o+QYQu6yZu5raTLuDvEHK7eYexNYjL/W/85z8mU1QNk4+7FNu8Kav4arb5GiKJepLMKPgCA4+p6UVeXMdxsiMwZaN7Mx2XP0R0CVODp28e7dtoZ8fTtQCv3nz9TdgAAOF5mHwacTVHMqye9prWTXUe2CvA1zOHxdl8TRPHMtsoeAADzm3jH1fkMORvjRq739Efkw0ObJKTA0zeirbeNavhdZRcAQMzTTzPkbI1ibkTezG0t2/atEuCTpq8dbPn6J4rcpuwDAHD6//37jqt3Muhsj7qOv1PW71okQFnquLQfeqG9653I04uVqG8oOwEAol7knrAMNaJXJkbF7KwYXpi5bpjd65woS5+nLAYAEPUNJ67nhm3AEU/kVuycIWlJS3ggmSrj6ZvtUY6yHwAg5mac7Lg6GbZBR/TCmBtkybZcG27kwNM3omQsntFAhQMAwIlrL6xDj+i50ddK3qYcSaWTYi+evv3bsItY79ZGUTeztwoPAEArV//acfWhMA8/omdHXSMLt0yw8EYOs9aPYI3bHId2Fzi9Gv5ehQsAIOrqBxmEWogeH3axmIOey5IJsQJP38xnytq2N4pHnlThAwC4bZT6luPqlQxDov/JbHhhbuTMwc/BhdkbRrKebY6nb1vads/4ngonAIDZfthxdZqh+HFEjw45X6atGSSJshLxE/D0jaipp69S4QYAcFw9gKFI9PnaDjxTcpZ1l+LEMQkGzNkwmrVrbRRzM8crAACa9qz3q6irDzAcib64hwaeLuZGriiRLz7H07fhl7BmbY1KnXj9TAUAgOF4uuVXDw4iatPvJBm1+FUpLD0q/oO5G8ewTi2OMjspAAD+n6hvOJ7OY0ASfX2t+50oQ+d3kSNF+8UfYI6CeHLEZaxPW6MP7hvU5EcKAIBPat6nfiPH1ccZlETlq0V2Ixkw93k5XLhXULfmbRrLmrQ2isUjtyoAAL5INB55lWFJVLFaZDUUb+bjsi//fUHdPH17asTlrEU7o7ieoQAA+DLmJxqOq3cyNIkqdyPXb86ztXwjh7xNOaw/W6PjsXhGA/VVAABw4pErGZpElS/m1ZNe09rJriNbpRbw9G3kFaw7OyNPv67KAwCAqKsHMzyJqn4j92Zua9lxYK3UDMzfPI61Zmu0t5X7z5+p8gIAcDac4+p9DFCiqhdzI2Ju5LbtWyXlAZ6+EcVcHVUAAFRELJ55F0OUqHp7I7elbNm7XFB1C7ZMYE3ZGv/QZ4E53kcBAFBR0bh+l2FKVP29MjEqG3cvFlROKmXtzpNEqWhWvVMUAACV0axv5I+Oq48wUIlqpq7j75QVO2dIWtJSfpi3cQzrx87I090VAABV4cQz2zBUiWq2Tjm3lvNGDmXJhDw+7GLWjXVR1NUf3tM946cKAIAqEfUNx9W5DFeimu+50deKOdfMbNCBL5azrDtrxdboRlUdAABo2kf/yXH1YYZr7UT0zKir/+dGLpWUj2HP0R3SMrsxa8TGaKyqZgAAdqWMMWBrN6InR1wm8zaNlWSqTMIuLWl5ccK9rAsbo3zzD0pVdQMAIBbX7zBoaz+i9kMvlKlrBsrxZKmE1cQVLmvBzsjTD6iaAADAvW79PziuPsjAJaqb2g06Wyat8CRRVixhYo5caJZVnzVgY7SoQwf1TWUvAAAHfBNR24FnitnMozhxTGyXX3xAHhl8ro2fI7HrZFmzuD5B1TQAAKKeHsbwJar7Hhp4hkxY3luKEwViI/Pu30vv2vneG1HMjXRRtQEAgPsGNfmR4+p1DGB/RNSm30kyavGrUlh61KpNS7JmPWnpZ0aUudnp//fvq9oCAEAsntEg6uoChrD/Im7k8osPBv7mbXBeR1s/J6J0LCtysQIAoA52pbyDQey/iFpkN5IBc5+Xw4V7JWjS6ZT0n/OctZ8NUdSN9FMAANQVJ657MZD9GZE59HrQvA5ysGCXBEGirER6T3/E5s+EaF/TnvV+pQAAqCut3FO+47h6PkPZvxE1z2og3szHZc/RHeJX5mlhp5xbLf8siCK3KQAA6lrz7Pp/c1x9iMHs74jMWWrmRm73kW3iJ8t3zpB2g87iM7I9Gq78AgAAJ66vdlydYkD7P6KYV0+6T3lAVr0/W1LppNSVwtJ8c0PJZxKGaI/vfjoJAEDUi3QO1kAloseGXiDjlvWQQwW7a/Vdt0krs+TBAafxGYQiinqR65XfAADQoYP6puPq3OANVyJq5tWXN3NbyfId0yWVSkpNOFp0QCauiMujQ84L099bogHKrwAAuLt34184rt4a3EFLRO0GnS19Zz8teZtyZF/++1IVR4r2yfzN46TH1IfMZiqh+vtIFHX1h07/v/9c+RkAAE2zIk0cVxcyvO2IyGww0nX8XZI16wnJWdZdzI3duo/my+Y978mOA2vFtGXvcln7YZ7kbXpHcpa+Le6M9vLMqKvD/PeNKO3EI1eqIAAAwIln3myGVxiHNhERUczVrgoSAACi8cirIRzaREREO5r9J3v3AF27lsBxeD/btk522vVwx7bt59dmp501tj3PNrNzNbZt27ZtG73TjD1z0fbknO9b67dsNP+cJjsry+0CAPTJkc8Jm6SmeJULuSRpjJqr8uAWoY8A4B457ppy/JILuiRpLGrjxQEA+qzOg6ukHH/hwi5JGvE+duT5+24VAKDv6qa82wgfaiJJ0q9mmrgsAMCoqHN56khetCVJaor7BwAYKWvCRnUTnz1iF21Jkl7ZXePCqAGA+1x26LYpxw+NyAVbkqRvp8sO3TOMKgCYXTF5QHfB6/kFW5KkubotbhdGHQDU7cR1uhe++3vRliSpuCCMCwCoc6z6eMGWJKnKxUd9MgCAcbyJO9cQ6FOSpCrHn04tLybDuAGAE08MG6ccn28Q9CZJUhunwrgCgO4RlNTEdxoFkqQedGkAgHF3jxx3rXL8rGEgSRri3nP/iwdbBAAghO59gpTjDwwESdIQ9oOp5eVBAQD4m6opbuDzApKkIWtuvjsFAOBfVU2c7i6WBoMkaUg6I/xnAEDK8USDYcmTJLXxNUc+J2wSAID/Yk3YqMrlKuNhqZIkdYdrHXf54TuF/w0A6H7xXKpvxEmSfKx79orJwwIAsNbfiHuLMbG4SZJDS8ojw9oDALrHV6pcfNSgWIwkSVUbnxDWHQAws7LcO+X4RcNCkrTAPbN7DzsAAOtndsUhg5Tjt4wLSdIC9eb7XzzYIgAAG8ZMU16te7HcyNjASZI+uQAnTgIAqSlunnL8lbEhSdpAfXNqeXlQWBgAQGrKW63/TZwkSeXP61xcMywsACA1xV2qHH9rfEiS1rHfdD8IBgBgcdRNeULK8fdGiCRpLZtLbZECALC46qao3cRJktamui0eFgCApVHneD+D5P9LklScHACApZVy+SCj5L8mSWriZWE4AAB1Gx9toPzbJElNXH3iiWHjMDwAgNTG+3Qvpxsrf5ck6VlHPidsEoYPAFDn4p4ONvlzkqTnnHjijTYNwwsAqHO8+3jfxEmSqrZ4rpu3ngCAqonTKcffGTGS5OatBwCAqi2PSjn+ZpxGiySpfPo98lU3C/0DAEy38c4px18ZNJI0Hp8K6PlpkwBA3Q5umHL8kXEjSSNcG88MowEAqNrBoVWOXzVyJMnNWw8AAOmKiQNTjp8ydiRpZPp9leN9w2gCAGZXHLpzyvHtRo8k9b5f1U1xbBhtAMDUU47YJrXx5caPJPW276fl8foBABgP3RHTKRcrjSBJ6ldVjp9NzWQRAIDxU+V4j/l+axRJUg9q4junrjhk9wAAjK+6nbhlyvGHxpEkDXPl8448f9+tAgDA1PJisnssx0CSpKFrrmrLU3yg+98BACdUvs5YkqSh6cfTbbxz+E8AAIebVLm43GiSpCXvgzOXx4PD/wIAUDflCVWOPzWgJGlJeso98t5bBwCA/9fM5WWZcvzwog0WSdKvUls+MKwLAIDuxLPUxhVGlSQteJ+bacqrBQAAj1RK0lD3lPtcdui2YUMBAEg5Tsz3oQ02WCRJ367a8g4BAGChTqlMTfnIlOOvDS9JWq+eU68a7BYWGgDA9PLyiJTL9xtgkrTWfW2+O4XFBABw5HMO3Tzl4uSU428MMkn6n/2maspzpp5yxDYBAGCppDxxuP/GSdJ/qYlv6f5WBgCAYXk3rsrxoSnHHxlrkvTXvlk1cTqsCRuFYQMAMH3pxC51Li9KOf5ufAebJJU/T2088/iLB9uHYQcAMH3F4MrdI0NjNtok6ffzPWd2xeQBoVcAANaEjeqmODbl+BWjTtLo37iVT59aXkwGAIC+n1ZZ5+KeKccvGHmSRqzfjeSNGwDAiSeGjVMuj0w5ftLok9Tnqhx/WueYZy4vyzDKAACOfE7YpHu0ssrFRw1BST27cftsyvFRsysO3TkAAIzbO3IzbbxZ98J/leNvjUNJQ9ov53tO9/fK5wDmAQBM54P3TzmeON/njEVJQ9Bcd5Ju3RT1fS47dNsAAMC//69cdUV53dTEy1KOX1/EsSZJv5jvZXUu7939qBQAAFi7m7npK+I1qiaennJ8j4+Db+Akzf3pUKWyqdvidvfIe28dNgwAAI67/PCdUo53qprynJTLN6Ucf2KASvp/6t6z/dMBJOVL5nt8lQe3SKsP3DEsHgAAnyWYXXHIoPvlfL6HdY9d1jnmta3K8ZLUxjPHL9VN8bjUlI/UKFbcK+XyyKqJN51uJ+I98lU3C70GAAAAAAAAAAAAAAAAAAAAAAAAAAAAAAAAAAAAAAAAAAAAAAAAAAAAAAAAAAAAAAAAAAAAAAAAAAAAAAAAAAAAAAAAAAAAAAAAAAAAAAAAAAAAAAAAAAAAAAAAAAAAAAAAAAAAAAAAAAAAAAAAAAAAAAAAAAAAAAAAAAAAAAAAAAAAAAAAAAAAAAAAAAAAAAAAAAAAAAAAAAAAAAAAAAAAAAAAAAAAAAAAAAAAAAAAAAAAAAAAAAAAAAAAAAAAAAAAAAAAAAAAAAAAAAAAAAAAAAAAAAAAAAAAAAAAAAAAAAAAAAAAAAAAAAAAAAAAAAAAAAAAAAAAAAAAAAAAAAAAAAAAAAAAAAAAAAAAAAAAAAAAAAAAAAAAAAAAAAAAAAAAAAAAAAAAAAAAAAAAAAAAAAAAAAAAAAAAAAAAAAAAAAAAAAAAAAAAAAAAAAAAAAAAAAAAAAAAAAAAAAAAAAAAAAAAAAAAAAAAAAAAAAAAAAAAAAAAAAAAAAAAAAAAAAAAAAAAAAAAAAAAAAAAAAAAAAAAAAAAAAAAAAAAAAAAAADwh/bggAQAAABA0P/X7QjUJwAAAAAAAAAAAAAAAAAAAAAAAAAAAAAAAAAAAAAAAAAAAAAAAAAAAAAAAAAAAAAAAAAAAAAAAAAAAAAAAAAAAAAAAAAAAAAAAAAAAAAAAAAAAAAAAAAAAAAAAAAAAAAAArkrudMPZNj2AAAAAElFTkSuQmCC;" parent="Dy-3eP0yGJDW4lXVk-KF-18" vertex="1">
          <mxGeometry width="126.18556701030927" height="126.18556701030927" as="geometry" />
        </mxCell>
        <mxCell id="Dy-3eP0yGJDW4lXVk-KF-17" value="Gitea" style="text;html=1;resizable=0;autosize=1;align=center;verticalAlign=middle;points=[];fillColor=none;strokeColor=none;rounded=0;" vertex="1" parent="Dy-3eP0yGJDW4lXVk-KF-18">
          <mxGeometry x="56.96774193548379" y="117.68820000000005" width="50" height="20" as="geometry" />
        </mxCell>
        <mxCell id="ZJDKhDsm4HpjwC9zdqOW-28" value="" style="shape=waypoint;sketch=0;size=6;pointerEvents=1;points=[];fillColor=#734FFF;resizable=0;rotatable=0;perimeter=centerPerimeter;snapToPoint=1;verticalAlign=top;strokeColor=none;fontColor=#232F3E;gradientColor=none;dashed=0;fontStyle=0;rounded=0;shadow=0;glass=1;labelBackgroundColor=none;" parent="ZJDKhDsm4HpjwC9zdqOW-2" vertex="1">
          <mxGeometry x="81.30538077818426" y="645.0020907216494" width="40" height="40" as="geometry" />
        </mxCell>
        <mxCell id="ZJDKhDsm4HpjwC9zdqOW-29" value="" style="edgeStyle=orthogonalEdgeStyle;rounded=0;orthogonalLoop=1;jettySize=auto;html=1;fontColor=#445B78;verticalAlign=middle;startArrow=classic;startFill=1;" parent="ZJDKhDsm4HpjwC9zdqOW-2" source="CB2yKECdqtkoGCdVRb_m-61" target="ZJDKhDsm4HpjwC9zdqOW-28" edge="1">
          <mxGeometry relative="1" as="geometry" />
        </mxCell>
        <mxCell id="Dy-3eP0yGJDW4lXVk-KF-3" value="" style="edgeStyle=none;rounded=0;orthogonalLoop=1;jettySize=auto;html=1;entryX=0.005;entryY=0.63;entryDx=0;entryDy=0;entryPerimeter=0;" edge="1" parent="ZJDKhDsm4HpjwC9zdqOW-2" source="CB2yKECdqtkoGCdVRb_m-60" target="CB2yKECdqtkoGCdVRb_m-28">
          <mxGeometry relative="1" as="geometry" />
        </mxCell>
        <mxCell id="CB2yKECdqtkoGCdVRb_m-60" value="ALB" style="sketch=0;outlineConnect=0;fontColor=#232F3E;gradientColor=none;fillColor=#734FFF;strokeColor=none;dashed=0;verticalLabelPosition=bottom;verticalAlign=top;align=center;html=1;fontSize=12;fontStyle=0;aspect=fixed;pointerEvents=1;shape=mxgraph.aws4.application_load_balancer;rounded=0;shadow=0;glass=1;labelBackgroundColor=none;" parent="ZJDKhDsm4HpjwC9zdqOW-2" vertex="1">
          <mxGeometry x="61.93903225806454" y="657.2017999999999" width="78.739793814433" height="78.739793814433" as="geometry" />
        </mxCell>
        <mxCell id="Dy-3eP0yGJDW4lXVk-KF-1" value="" style="rounded=0;orthogonalLoop=1;jettySize=auto;html=1;entryX=0.005;entryY=0.63;entryDx=0;entryDy=0;entryPerimeter=0;" edge="1" parent="ZJDKhDsm4HpjwC9zdqOW-2" source="CB2yKECdqtkoGCdVRb_m-61">
          <mxGeometry relative="1" as="geometry">
            <mxPoint x="548.1616290322581" y="326.91340000000014" as="targetPoint" />
          </mxGeometry>
        </mxCell>
        <mxCell id="ZJDKhDsm4HpjwC9zdqOW-31" value="" style="rounded=0;orthogonalLoop=1;jettySize=auto;html=1;fontColor=#445B78;startArrow=none;startFill=0;endArrow=none;endFill=0;" parent="ZJDKhDsm4HpjwC9zdqOW-9" edge="1">
          <mxGeometry relative="1" as="geometry">
            <mxPoint x="168" y="540" as="targetPoint" />
            <mxPoint x="78" y="540" as="sourcePoint" />
          </mxGeometry>
        </mxCell>
        <mxCell id="ZJDKhDsm4HpjwC9zdqOW-8" value="Internet&#xa;gateway" style="sketch=0;outlineConnect=0;fontColor=#445B78;gradientColor=none;strokeColor=#232F3E;fillColor=none;dashed=0;verticalLabelPosition=bottom;verticalAlign=top;align=center;html=1;fontSize=12;fontStyle=0;aspect=fixed;shape=mxgraph.aws4.resourceIcon;resIcon=mxgraph.aws4.internet_gateway;shadow=0;" parent="ZJDKhDsm4HpjwC9zdqOW-9" vertex="1">
          <mxGeometry y="500" width="80" height="80" as="geometry" />
        </mxCell>
        <mxCell id="ZJDKhDsm4HpjwC9zdqOW-7" value="Route 53" style="sketch=0;points=[[0,0,0],[0.25,0,0],[0.5,0,0],[0.75,0,0],[1,0,0],[0,1,0],[0.25,1,0],[0.5,1,0],[0.75,1,0],[1,1,0],[0,0.25,0],[0,0.5,0],[0,0.75,0],[1,0.25,0],[1,0.5,0],[1,0.75,0]];outlineConnect=0;fontColor=#232F3E;gradientColor=none;gradientDirection=north;fillColor=#D175FF;strokeColor=#ffffff;dashed=0;verticalLabelPosition=bottom;verticalAlign=top;align=center;html=1;fontSize=12;fontStyle=0;aspect=fixed;shape=mxgraph.aws4.resourceIcon;resIcon=mxgraph.aws4.route_53;shadow=0;" parent="1" vertex="1">
          <mxGeometry x="480" y="616" width="78" height="78" as="geometry" />
        </mxCell>
        <mxCell id="ZJDKhDsm4HpjwC9zdqOW-11" value="" style="edgeStyle=orthogonalEdgeStyle;rounded=0;orthogonalLoop=1;jettySize=auto;html=1;fontColor=#445B78;" parent="1" source="ZJDKhDsm4HpjwC9zdqOW-7" target="ZJDKhDsm4HpjwC9zdqOW-8" edge="1">
          <mxGeometry relative="1" as="geometry" />
        </mxCell>
        <mxCell id="Dy-3eP0yGJDW4lXVk-KF-21" value="" style="edgeStyle=orthogonalEdgeStyle;rounded=0;orthogonalLoop=1;jettySize=auto;html=1;startArrow=none;startFill=0;endArrow=classic;endFill=1;" edge="1" parent="1" source="Dy-3eP0yGJDW4lXVk-KF-19">
          <mxGeometry relative="1" as="geometry">
            <mxPoint x="480" y="655" as="targetPoint" />
          </mxGeometry>
        </mxCell>
        <mxCell id="Dy-3eP0yGJDW4lXVk-KF-19" value="Users" style="sketch=0;outlineConnect=0;fontColor=#232F3E;gradientColor=none;strokeColor=#232F3E;fillColor=none;dashed=0;verticalLabelPosition=bottom;verticalAlign=top;align=center;html=1;fontSize=12;fontStyle=0;aspect=fixed;shape=mxgraph.aws4.resourceIcon;resIcon=mxgraph.aws4.users;" vertex="1" parent="1">
          <mxGeometry x="190" y="595" width="120" height="120" as="geometry" />
        </mxCell>
      </root>
    </mxGraphModel>
  </diagram>
</mxfile>
